<?xml version="1.0" standalone="no"?>
<!DOCTYPE svg PUBLIC "-//W3C//DTD SVG 20010904//EN"
 "http://www.w3.org/TR/2001/REC-SVG-20010904/DTD/svg10.dtd">
<svg version="1.0" xmlns="http://www.w3.org/2000/svg"
 width="1600.000000pt" height="1600.000000pt" viewBox="0 0 1600.000000 1600.000000"
 preserveAspectRatio="xMidYMid meet">
<metadata>
Created by potrace 1.14, written by Peter Selinger 2001-2017
</metadata>
<g transform="translate(0.000000,1600.000000) scale(0.100000,-0.100000)"
fill="#000000" stroke="none">
<path d="M8079 15666 c-3 -3 -151 -6 -330 -7 -329 -1 -414 -6 -414 -24 0 -7
252 -10 733 -11 617 -1 735 -3 743 -15 6 -10 44 -16 146 -20 76 -4 221 -18
323 -32 326 -45 343 -47 440 -63 52 -8 109 -19 125 -24 17 -5 66 -19 110 -31
163 -44 290 -95 340 -137 37 -32 123 -137 152 -187 29 -50 79 -200 102 -305 7
-30 18 -82 25 -116 7 -34 16 -66 20 -72 3 -6 17 -81 31 -167 13 -85 26 -159
29 -163 2 -4 7 -25 10 -47 7 -43 30 -175 46 -265 24 -127 49 -279 55 -330 3
-30 12 -100 20 -155 35 -247 45 -316 55 -410 7 -55 18 -147 27 -205 8 -58 16
-132 19 -165 2 -33 9 -96 14 -140 6 -44 14 -141 20 -215 5 -74 14 -187 19
-250 12 -143 29 -378 36 -490 2 -47 10 -177 17 -290 18 -281 18 -1486 0 -1710
-29 -378 -55 -630 -64 -646 -4 -6 -8 -35 -9 -65 0 -30 -5 -70 -10 -89 -5 -19
-13 -64 -18 -100 -10 -63 -33 -174 -65 -310 -51 -217 -69 -289 -80 -320 -7
-19 -31 -89 -54 -155 -48 -143 -87 -248 -107 -292 -8 -17 -15 -34 -15 -38 0
-3 -20 -48 -44 -98 -24 -51 -56 -117 -70 -147 -25 -54 -84 -163 -112 -207 -19
-31 -29 -29 -53 11 -23 36 -96 84 -248 160 -131 65 -193 61 -285 -23 -29 -26
-75 -63 -103 -81 -27 -19 -68 -48 -90 -65 -41 -32 -208 -135 -219 -135 -4 0
-24 -11 -45 -25 -46 -28 -269 -124 -374 -159 -72 -25 -271 -75 -380 -96 -82
-16 -120 -34 -151 -70 -44 -53 -45 -85 -12 -275 40 -235 76 -485 76 -533 0
-19 11 -41 30 -62 17 -18 30 -38 30 -45 0 -32 -271 -66 -524 -66 -259 1 -395
20 -671 96 -140 38 -414 148 -505 203 -19 12 -72 42 -117 67 -45 26 -93 55
-105 66 l-23 19 24 18 c46 33 116 108 166 177 45 64 144 192 209 271 60 73 69
119 36 183 -27 53 -71 88 -170 133 -113 52 -175 84 -237 124 -28 19 -55 34
-59 34 -17 0 -168 108 -318 229 -98 79 -116 78 -310 -19 -122 -61 -156 -83
-188 -122 -42 -49 -56 -52 -74 -15 -5 12 -20 40 -32 62 -12 22 -37 72 -55 110
-19 39 -39 79 -45 90 -25 44 -142 314 -142 328 0 5 -6 23 -14 40 -28 65 -45
114 -61 172 -9 33 -23 78 -30 100 -26 80 -48 151 -61 200 -7 28 -22 84 -33
125 -11 41 -21 88 -21 103 0 15 -6 56 -14 90 -8 34 -22 105 -31 157 -9 52 -21
118 -26 145 -13 64 -36 257 -54 457 -8 86 -17 170 -20 186 -8 45 -24 933 -20
1062 2 63 7 273 10 465 3 193 10 402 15 465 6 63 15 183 20 265 25 376 51 686
71 845 18 137 39 328 48 430 8 92 21 186 42 320 6 36 13 81 15 100 3 19 11 76
19 125 8 50 24 149 35 220 11 72 24 153 29 180 5 28 12 73 16 100 3 28 12 79
20 115 8 36 22 101 30 145 18 87 38 183 60 285 8 36 24 108 36 160 40 184 114
354 188 433 43 46 145 127 160 127 10 0 67 23 104 41 28 15 168 59 186 59 9 0
48 11 86 25 l70 25 -50 -4 c-27 -2 -57 -6 -65 -9 -8 -3 -39 -8 -68 -12 -95
-11 -324 -98 -352 -134 -3 -4 -30 -26 -60 -49 -30 -24 -65 -62 -79 -85 -13
-23 -27 -44 -30 -47 -14 -12 -51 -70 -51 -80 0 -6 -6 -21 -14 -33 -25 -39 -85
-232 -106 -342 -4 -22 -20 -94 -34 -160 -15 -66 -31 -145 -36 -175 -5 -30 -17
-89 -25 -130 -8 -41 -22 -120 -30 -175 -18 -126 -46 -288 -50 -295 -7 -11 -37
-200 -46 -290 -5 -52 -18 -158 -29 -235 -11 -77 -25 -187 -30 -245 -6 -57 -14
-118 -19 -135 -6 -16 -13 -77 -16 -135 -3 -58 -8 -112 -10 -120 -10 -35 -47
-448 -55 -610 -5 -96 -14 -227 -19 -290 -6 -63 -12 -162 -15 -220 -2 -58 -9
-211 -15 -340 -12 -251 -17 -1325 -8 -1525 4 -66 13 -223 21 -350 9 -126 15
-266 14 -310 0 -44 2 -145 5 -225 16 -352 18 -416 17 -430 -3 -47 4 -763 10
-995 0 -11 -1 -67 -2 -125 -2 -126 11 -618 18 -710 3 -36 7 -101 8 -145 2 -44
9 -161 16 -260 6 -99 13 -225 14 -280 2 -55 8 -125 14 -155 6 -30 14 -109 17
-175 4 -66 11 -125 17 -132 6 -8 6 -18 -1 -32 -10 -18 -7 -167 5 -251 3 -19 6
-69 8 -110 3 -87 24 -341 31 -385 3 -17 1 -46 -5 -64 -6 -23 -6 -39 0 -46 6
-7 10 -23 9 -36 -1 -13 4 -58 10 -99 6 -41 10 -110 8 -153 -2 -43 1 -104 5
-135 5 -31 8 -71 8 -89 0 -17 3 -34 7 -36 5 -3 8 -41 7 -84 -1 -45 3 -81 9
-85 7 -4 6 -12 -2 -22 -10 -12 -11 -23 -2 -47 6 -17 9 -35 6 -39 -3 -4 4 -58
15 -119 11 -61 17 -123 14 -137 -4 -14 -1 -43 6 -64 9 -28 10 -50 3 -77 -5
-21 -6 -45 -2 -53 17 -33 21 -59 23 -155 1 -56 -2 -107 -8 -117 -7 -12 -6 -22
6 -35 21 -25 30 -72 32 -173 1 -47 5 -93 10 -103 5 -9 5 -32 1 -50 -18 -87
-17 -136 4 -171 25 -40 27 -56 5 -56 -8 0 -23 -7 -32 -16 -14 -15 -14 -17 1
-26 9 -5 17 -16 17 -23 0 -8 4 -15 9 -15 8 0 12 -14 27 -119 4 -30 9 -39 15
-30 6 10 9 5 10 -16 1 -16 1 -37 0 -45 -1 -8 -3 -20 -3 -27 -1 -6 -7 -9 -15
-6 -7 3 -13 0 -13 -6 0 -6 4 -11 9 -11 6 0 8 -38 6 -92 -4 -86 -2 -94 18 -113
13 -11 30 -36 39 -55 15 -30 15 -37 2 -51 -8 -8 -14 -23 -14 -32 0 -9 -4 -17
-10 -17 -5 0 -10 9 -10 19 0 11 -4 23 -10 26 -5 3 -10 21 -10 40 0 18 -7 40
-15 49 -8 8 -15 19 -15 25 0 6 -4 11 -10 11 -5 0 -10 12 -10 26 0 14 4 23 10
19 16 -10 12 47 -5 59 -13 10 -24 103 -15 131 2 6 -2 30 -9 54 -10 34 -10 50
0 72 10 24 9 33 -3 47 -24 27 -31 61 -18 92 9 23 9 33 -3 52 -19 30 -29 75
-19 82 5 3 7 20 6 38 -2 18 -4 69 -5 113 -2 46 -9 89 -16 101 -12 19 -12 24 2
37 21 21 19 34 -6 40 -18 5 -21 12 -17 55 2 39 -1 55 -17 72 -18 20 -18 22 -2
31 23 13 22 25 -4 32 -18 5 -19 10 -13 44 4 21 13 50 20 65 19 37 18 95 -2
106 -11 6 -16 27 -18 76 -2 37 -6 70 -10 73 -3 3 -6 17 -6 29 0 13 -4 26 -10
29 -15 9 -12 41 5 55 10 9 12 17 5 30 -5 10 -10 33 -12 51 -1 19 -8 42 -16 51
-24 28 -32 96 -15 114 20 19 20 59 0 78 -11 12 -15 42 -16 135 0 95 -4 126
-17 147 -19 27 -23 120 -10 206 5 36 3 53 -8 70 -9 12 -16 43 -16 68 0 25 -5
64 -10 86 -5 23 -11 101 -13 174 -2 72 -8 135 -13 138 -5 4 -10 58 -10 121 -1
63 -7 139 -14 168 -11 42 -11 61 -1 94 9 29 9 44 2 48 -13 8 -18 62 -7 79 4 6
2 20 -3 31 -6 10 -13 59 -17 107 -4 49 -8 112 -10 139 -2 28 -6 90 -9 139 -2
48 -9 113 -14 143 -6 29 -8 73 -5 96 3 23 0 65 -7 92 -6 28 -13 88 -15 135 -8
199 -18 318 -28 327 -11 11 -6 71 6 75 10 4 10 13 0 44 -12 39 -16 102 -28
449 -6 174 -7 243 -5 278 1 6 -1 59 -5 117 -3 58 -6 123 -6 145 1 22 1 85 0
140 -1 95 2 523 4 555 0 8 -2 40 -5 70 -3 30 0 64 6 75 5 11 12 65 15 120 3
79 12 702 13 957 0 26 -5 100 -11 166 -7 83 -8 127 0 146 6 16 7 34 1 43 -4 9
-6 30 -2 47 3 17 5 191 4 386 -2 473 -2 480 2 520 4 46 -3 70 -19 64 -9 -3
-16 -31 -20 -77 -25 -267 -25 -3836 0 -4077 2 -19 5 -123 8 -230 2 -107 14
-359 26 -560 40 -674 50 -844 55 -960 2 -63 9 -158 14 -210 16 -147 22 -225
27 -350 2 -63 8 -149 14 -190 5 -41 15 -147 21 -235 5 -88 14 -203 19 -255 4
-52 9 -124 11 -160 1 -36 5 -72 9 -80 7 -14 14 -86 26 -265 3 -44 8 -87 11
-95 3 -8 7 -51 10 -95 2 -44 8 -107 13 -140 5 -33 14 -118 20 -190 6 -71 15
-152 20 -178 6 -26 10 -71 10 -99 0 -28 6 -101 14 -162 8 -61 20 -156 26 -211
6 -55 17 -161 25 -235 8 -74 20 -167 25 -206 6 -39 13 -89 15 -110 21 -217 62
-386 123 -504 18 -36 42 -74 52 -85 9 -11 24 -32 31 -46 26 -50 174 -196 245
-242 206 -132 341 -170 699 -197 55 -4 136 -13 180 -19 92 -13 569 -46 886
-61 246 -12 825 -12 1034 1 77 4 226 13 330 18 166 9 409 27 850 61 316 25
424 49 595 135 166 83 281 177 374 303 45 61 116 191 116 213 0 6 6 25 14 42
31 72 68 253 81 402 3 39 10 95 15 125 8 50 23 202 50 520 5 63 17 183 25 265
8 83 22 218 30 300 9 83 22 220 30 305 8 85 21 225 29 310 8 85 20 234 26 330
6 96 16 225 21 285 6 61 14 178 19 262 4 83 11 169 14 190 3 21 10 124 16 228
5 105 14 242 20 305 14 175 30 416 46 715 61 1171 63 1242 67 3420 4 1502 -3
2283 -22 2665 -6 118 -14 292 -17 385 -3 94 -9 197 -14 230 -5 33 -12 125 -15
205 -3 80 -11 179 -16 220 -5 41 -14 120 -19 175 -34 349 -58 566 -71 635 -6
30 -15 96 -20 145 -6 50 -19 142 -30 205 -11 63 -24 142 -30 175 -5 33 -16 92
-24 130 -9 39 -24 120 -34 180 -57 323 -61 343 -92 455 -6 19 -11 42 -13 50
-17 95 -84 228 -151 298 -27 30 -54 60 -58 68 -9 16 -111 90 -186 134 -39 23
-63 30 -85 27 -19 -2 -35 1 -41 9 -5 7 -50 23 -100 35 -49 11 -121 30 -160 41
-38 12 -81 22 -95 24 -14 1 -62 7 -108 12 -46 5 -89 15 -95 21 -13 13 -103 15
-111 2 -7 -11 27 -21 71 -21 17 0 34 -4 37 -9 3 -4 34 -11 68 -15 82 -8 238
-36 263 -46 11 -4 41 -14 68 -20 26 -7 50 -17 53 -21 3 -5 18 -9 33 -9 15 0
36 -7 47 -15 10 -8 28 -15 39 -15 11 0 27 -6 36 -13 20 -15 8 -36 -33 -54 -32
-14 -47 -4 -17 12 18 10 19 13 5 18 -8 3 -22 -1 -30 -9 -13 -13 -19 -12 -53 6
-21 11 -45 20 -53 20 -9 0 -24 6 -35 14 -11 7 -36 16 -55 18 -19 3 -66 13
-105 22 -38 10 -86 21 -105 26 -58 14 -180 33 -265 41 -44 4 -98 12 -120 18
-22 6 -77 11 -122 11 -45 0 -85 5 -88 10 -12 19 51 31 160 30 139 -2 155 0 80
13 -91 15 -291 15 -307 0 -17 -18 -39 -16 -32 2 5 11 -2 15 -27 16 -19 1 -45
3 -59 5 -46 7 -1025 16 -1031 10z m2351 -276 c0 -5 -2 -10 -4 -10 -3 0 -8 5
-11 10 -3 6 -1 10 4 10 6 0 11 -4 11 -10z m-17 -27 c-7 -2 -19 -2 -25 0 -7 3
-2 5 12 5 14 0 19 -2 13 -5z m720 -7533 c-7 -28 -13 -25 -13 6 0 14 4 23 9 20
5 -3 7 -15 4 -26z m-2 -237 c-9 -16 -10 -15 -11 8 0 14 3 29 8 33 12 12 14
-22 3 -41z m-2 -142 c8 -13 7 -30 -3 -58 l-14 -38 -7 47 c-9 61 4 88 24 49z
m-1104 -196 c63 -30 117 -55 120 -55 16 0 103 -73 113 -95 24 -53 17 -69 -92
-224 -126 -178 -386 -466 -479 -530 -12 -8 -43 -35 -69 -59 -26 -24 -71 -60
-99 -79 -29 -19 -69 -47 -88 -62 -20 -15 -72 -49 -116 -74 -44 -26 -87 -52
-95 -57 -52 -32 -243 -120 -360 -166 -173 -66 -223 -76 -274 -52 -51 23 -73
91 -96 293 -4 44 -13 105 -19 135 -33 178 -42 236 -47 302 -6 69 -5 75 20 105
23 27 40 35 124 53 53 12 115 26 137 31 22 6 60 15 85 20 25 5 54 13 65 18 11
5 58 21 105 36 99 31 252 96 363 155 121 63 218 126 371 241 78 58 149 109
156 112 34 13 68 4 175 -48z m-3780 -37 c171 -133 338 -237 510 -316 180 -83
233 -148 186 -227 -11 -20 -47 -68 -78 -107 -32 -38 -65 -80 -73 -92 -8 -11
-43 -58 -77 -103 -35 -46 -63 -87 -63 -91 0 -5 -13 -21 -29 -36 -41 -40 -102
-45 -157 -14 -119 66 -394 347 -572 582 -132 175 -136 182 -140 236 -4 49 -1
60 23 88 29 35 30 36 176 109 151 75 161 74 294 -29z m4872 -160 c-2 -13 -4
-3 -4 22 0 25 2 35 4 23 2 -13 2 -33 0 -45z m0 -135 c-2 -16 -4 -5 -4 22 0 28
2 40 4 28 2 -13 2 -35 0 -50z m3 -95 c-1 -28 -2 -30 -11 -15 -6 10 -8 25 -5
33 9 24 16 16 16 -18z m-14 -122 c8 -8 14 -24 14 -36 0 -20 -1 -20 -25 -4 -14
9 -25 25 -25 35 0 23 16 25 36 5z m17 -132 c3 -3 3 -12 0 -20 -4 -11 -9 -12
-19 -3 -8 6 -11 15 -8 20 6 10 18 12 27 3z m-6 -141 c-4 -17 -4 -17 -12 0 -4
9 -4 25 0 35 8 16 8 16 12 0 3 -10 3 -26 0 -35z m-22 -166 c0 -40 -19 -38 -23
2 -3 24 0 32 10 29 7 -3 13 -17 13 -31z m-5 -82 c0 -8 -4 -15 -10 -15 -5 0
-10 7 -10 15 0 8 5 15 10 15 6 0 10 -7 10 -15z m12 -187 c2 -53 0 -79 -8 -82
-20 -8 -24 5 -24 80 0 135 25 136 32 2z m-742 -374 c136 -74 180 -185 135
-339 -30 -100 -76 -157 -185 -227 -98 -63 -231 -117 -290 -118 -14 0 -45 -8
-70 -17 -35 -13 -85 -16 -230 -17 -160 -1 -192 2 -235 18 -196 76 -219 179
-79 366 76 101 275 237 424 289 36 13 74 27 85 31 134 54 359 61 445 14z
m-4438 16 c24 -5 75 -17 113 -25 179 -41 396 -158 534 -288 80 -76 151 -216
137 -271 -4 -15 -24 -46 -45 -69 -50 -54 -147 -86 -286 -94 -108 -7 -312 12
-364 33 -18 8 -48 14 -65 14 -18 0 -36 4 -41 8 -6 5 -31 16 -57 26 -54 20
-219 121 -231 141 -4 8 -13 20 -20 27 -16 16 -51 81 -72 132 -22 56 -20 172 5
223 21 44 103 123 129 124 9 0 32 6 51 13 43 16 154 20 212 6z m5138 -10 c0
-5 -7 -10 -15 -10 -8 0 -15 5 -15 10 0 6 7 10 15 10 8 0 15 -4 15 -10z m9
-102 c-1 -27 -16 -77 -19 -63 -1 6 -5 1 -10 -10 -7 -16 -9 -11 -9 22 -1 23 2
48 5 57 9 24 34 19 33 -6z m-19 -159 c0 -11 -4 -18 -9 -15 -5 4 -12 0 -14 -6
-3 -7 -6 -4 -6 8 -1 11 2 24 6 27 12 13 23 7 23 -14z m-2720 -49 c157 -41 275
-113 316 -191 18 -35 18 -100 0 -142 -17 -41 -98 -134 -145 -168 -187 -137
-459 -193 -674 -138 -180 46 -351 152 -426 266 -28 41 -31 54 -31 120 0 72 1
74 40 116 53 58 114 89 245 125 142 39 153 40 390 37 169 -2 213 -6 285 -25z
m2710 -169 c0 -36 -11 -53 -26 -40 -15 12 -19 41 -7 52 13 14 33 6 33 -12z
m-10 -166 c0 -8 -4 -15 -10 -15 -5 0 -10 7 -10 15 0 8 5 15 10 15 6 0 10 -7
10 -15z m-54 -113 c-18 -16 -19 -16 -12 1 3 10 6 24 6 30 0 8 4 7 12 -1 10
-10 8 -16 -6 -30z m44 -97 c-1 -15 -39 -59 -46 -52 -3 3 -3 19 1 36 4 21 12
29 26 28 10 -1 19 -6 19 -12z m-20 -151 c0 -14 -3 -14 -15 -4 -8 7 -15 14 -15
16 0 2 7 4 15 4 8 0 15 -7 15 -16z m-708 -82 c88 -39 156 -138 157 -227 1 -62
-36 -164 -79 -221 -75 -99 -128 -132 -369 -225 -66 -26 -233 -49 -357 -49
-113 0 -142 4 -215 26 -70 22 -91 34 -125 70 -62 66 -63 101 -7 223 42 92 146
189 298 278 113 67 170 89 345 133 105 26 285 23 352 -8z m-4237 -1 c182 -35
237 -56 388 -144 188 -111 337 -285 337 -394 0 -65 -32 -103 -127 -150 l-77
-38 -190 0 c-245 0 -352 24 -543 120 -71 36 -106 61 -149 108 -81 88 -97 129
-98 257 -1 94 2 109 23 143 65 104 219 139 436 98z m4945 -31 c0 -5 -7 -10
-16 -10 -8 0 -12 5 -9 10 3 6 10 10 16 10 5 0 9 -4 9 -10z m-2765 -260 c33 -6
86 -15 117 -21 135 -23 283 -125 308 -213 53 -190 -304 -436 -633 -436 -206 0
-401 68 -534 186 -92 82 -123 137 -123 214 0 70 22 107 100 165 75 56 139 77
330 108 54 9 378 6 435 -3z m2735 -132 c0 -7 -4 -19 -9 -27 -11 -17 -25 3 -17
24 7 18 26 20 26 3z m-49 -380 c-20 -24 -21 -23 -21 12 0 27 2 29 19 19 17
-11 17 -14 2 -31z m-11 -211 c0 -2 -9 -14 -20 -27 -14 -16 -20 -18 -20 -9 0
16 19 39 32 39 4 0 8 -2 8 -3z m-687 -66 c149 -72 195 -223 118 -386 -37 -81
-64 -112 -142 -166 -139 -94 -240 -129 -489 -168 -148 -24 -291 -7 -405 46
-81 37 -115 79 -115 142 0 92 109 244 245 341 115 82 210 126 410 190 109 35
306 36 378 1z m-4053 -11 c79 -20 157 -47 255 -88 82 -34 266 -171 317 -234
63 -80 108 -171 108 -220 0 -42 -42 -98 -92 -124 -82 -43 -150 -56 -293 -56
-157 0 -233 11 -395 57 -132 37 -293 139 -340 217 -51 83 -70 142 -70 218 0
129 70 215 205 251 50 14 215 2 305 -21z m4734 -113 c3 -17 2 -35 -4 -41 -5
-5 -10 -20 -10 -33 0 -13 -5 -23 -10 -23 -17 0 -31 51 -23 84 9 40 10 45 12
51 4 16 30 -12 35 -38z m-2579 -186 c152 -38 221 -70 276 -128 94 -98 91 -174
-11 -297 -82 -98 -309 -216 -416 -216 -17 0 -55 -4 -83 -10 -38 -7 -84 -6
-169 5 -158 19 -237 45 -330 106 -24 16 -47 29 -51 29 -16 0 -129 126 -150
167 -32 64 -28 127 11 184 17 26 50 59 72 73 57 37 235 93 336 105 133 15 419
6 515 -18z m-3134 -64 c-8 -8 -11 -5 -11 9 0 27 14 41 18 19 2 -9 -1 -22 -7
-28z m5689 23 c0 -5 -2 -10 -4 -10 -3 0 -8 5 -11 10 -3 6 -1 10 4 10 6 0 11
-4 11 -10z m-30 -130 c0 -22 -16 -35 -25 -20 -9 14 4 52 16 45 5 -4 9 -15 9
-25z m0 -121 c0 -20 -15 -26 -25 -9 -9 15 3 43 15 35 5 -3 10 -15 10 -26z
m-10 -129 c0 -5 -4 -10 -10 -10 -5 0 -10 5 -10 10 0 6 5 10 10 10 6 0 10 -4
10 -10z m-30 -270 c0 -5 -4 -10 -10 -10 -5 0 -10 5 -10 10 0 6 5 10 10 10 6 0
10 -4 10 -10z m-1 -72 c0 -16 -2 -18 -6 -8 -3 8 -11 18 -17 22 -7 5 -4 8 7 8
11 0 17 -7 16 -22z m-641 -17 c92 -47 151 -139 152 -235 0 -121 -101 -276
-221 -336 -24 -13 -55 -30 -69 -39 -14 -10 -41 -22 -60 -28 -19 -7 -55 -19
-80 -29 -108 -40 -359 -63 -502 -46 -100 13 -179 45 -223 92 -27 28 -30 38
-30 98 0 60 4 74 37 128 116 189 417 372 683 414 99 15 266 5 313 -19z m-3951
0 c121 -29 230 -69 319 -117 94 -51 258 -174 275 -207 7 -12 24 -36 39 -53 14
-17 39 -60 54 -97 26 -60 27 -69 16 -98 -46 -109 -207 -167 -430 -156 -129 7
-257 27 -340 54 -56 18 -235 107 -256 127 -6 6 -26 25 -45 43 -78 73 -99 119
-115 253 -15 117 58 225 176 261 50 15 226 10 307 -10z m-873 -67 c18 -7 12
-24 -10 -24 -8 0 -14 7 -14 15 0 17 2 18 24 9z m2896 -224 c200 -20 366 -106
417 -216 21 -46 23 -58 14 -92 -36 -133 -198 -264 -413 -334 -65 -20 -92 -23
-238 -23 -188 0 -209 5 -378 87 -251 121 -344 321 -207 442 30 27 70 50 145
86 60 28 199 52 345 60 88 4 171 6 185 4 14 -2 72 -9 130 -14z m-1190 -368 c0
-14 -36 -43 -43 -35 -4 3 0 15 10 25 17 19 33 24 33 10z m-1693 -66 c-4 -9
-11 -16 -18 -16 -6 0 -8 7 -5 16 3 9 6 21 6 27 0 8 3 8 11 0 7 -7 9 -19 6 -27z
m48 -236 c3 -5 1 -10 -4 -10 -6 0 -11 5 -11 10 0 6 2 10 4 10 3 0 8 -4 11 -10z"/>
<path d="M9816 7064 c-102 -28 -136 -55 -102 -83 10 -8 21 -8 40 -1 15 5 51
10 80 10 62 0 71 -12 80 -99 7 -67 23 -88 51 -67 18 13 20 25 17 106 -3 120
-19 151 -77 149 -22 -1 -62 -8 -89 -15z"/>
<path d="M8826 6424 c-9 -8 -18 -27 -21 -42 -3 -15 -10 -46 -15 -70 -25 -108
-7 -126 134 -130 110 -3 138 5 120 35 -8 14 -30 20 -89 24 -48 4 -81 12 -86
20 -5 8 -9 41 -8 74 1 114 -2 123 -35 89z"/>
<path d="M6218 6931 c-32 -29 -33 -29 -32 -122 0 -103 8 -126 55 -160 65 -46
160 -20 115 30 -11 12 -27 21 -37 21 -41 0 -72 101 -47 150 12 21 39 41 72 53
5 2 6 15 2 30 -6 24 -11 27 -51 27 -35 0 -52 -6 -77 -29z"/>
<path d="M10160 5522 c-46 -23 -48 -56 -4 -60 19 -2 36 3 44 12 17 21 56 20
64 -1 5 -11 -2 -24 -20 -38 -29 -23 -28 -26 21 -59 16 -12 17 -16 6 -30 -18
-22 -46 -20 -80 5 -35 26 -75 22 -79 -7 -9 -62 164 -92 221 -39 31 30 37 79
10 93 -15 9 -16 14 -3 52 14 42 13 43 -14 66 -34 30 -113 33 -166 6z"/>
<path d="M9922 5254 c-20 -14 -23 -23 -20 -77 3 -54 5 -62 23 -62 16 0 21 9
26 40 3 22 8 49 12 61 4 11 2 28 -5 37 -12 16 -15 16 -36 1z"/>
<path d="M9632 5233 c-15 -22 -17 -32 -8 -45 8 -13 8 -25 -1 -47 -9 -25 -8
-30 8 -34 26 -7 36 10 41 73 8 85 -5 102 -40 53z"/>
<path d="M9531 5194 c-12 -15 -21 -31 -21 -36 0 -17 49 -58 70 -58 24 0 25 6
4 27 -11 12 -14 26 -9 54 8 48 -12 53 -44 13z"/>
<path d="M9730 5195 c-25 -26 -25 -47 -2 -68 30 -27 42 -20 42 21 0 52 9 57
42 25 20 -19 31 -24 39 -16 11 11 -3 52 -19 54 -55 8 -83 4 -102 -16z"/>
<path d="M5692 5478 c-17 -17 -15 -38 3 -38 8 0 24 -9 36 -21 18 -18 20 -28
14 -93 -8 -79 4 -104 45 -91 20 6 20 13 18 128 l-3 122 -50 3 c-30 2 -55 -2
-63 -10z"/>
<path d="M6325 5255 c-16 -7 -41 -25 -54 -39 -20 -21 -23 -32 -18 -68 7 -52
-2 -71 -34 -66 -22 3 -24 9 -29 65 -5 68 -24 91 -85 105 -67 15 -155 -39 -155
-96 0 -26 43 -74 77 -87 11 -4 101 -9 200 -10 148 -2 183 0 209 14 36 19 64
57 64 88 0 32 -37 78 -77 94 -42 18 -58 18 -98 0z m-187 -65 c27 -36 27 -41 1
-74 -40 -50 -139 -24 -139 38 0 34 39 66 80 66 29 0 41 -6 58 -30z m286 14
c20 -20 20 -63 0 -92 -31 -44 -134 -16 -134 37 0 11 10 32 22 46 25 29 87 35
112 9z"/>
<path d="M7655 5135 c-29 -28 -31 -38 -10 -55 11 -9 24 -6 64 16 42 24 52 26
65 15 28 -23 18 -47 -41 -97 -116 -96 -114 -103 25 -101 99 2 107 3 107 22 0
14 -9 21 -33 26 -18 4 -36 10 -39 13 -4 4 12 26 35 49 52 52 55 86 13 116 -22
16 -44 21 -95 21 -58 0 -70 -3 -91 -25z"/>
<path d="M8148 5060 c-1 -5 -1 -38 2 -72 4 -55 8 -63 25 -63 28 0 41 87 18
121 -16 25 -39 32 -45 14z"/>
<path d="M8390 5033 c-29 -11 -50 -36 -50 -60 0 -41 96 -80 108 -44 3 9 -2 11
-17 6 -16 -5 -23 -1 -32 19 -15 33 3 58 36 50 20 -5 44 11 33 22 -8 8 -63 13
-78 7z"/>
<path d="M8007 5018 c-12 -7 -9 -9 23 -12 8 0 16 -10 18 -21 9 -59 13 -66 35
-63 17 2 23 11 25 40 3 29 -2 40 -20 52 -24 16 -60 17 -81 4z"/>
<path d="M8238 5024 c-3 -3 1 -18 9 -34 11 -22 11 -34 3 -50 -12 -23 -1 -27
31 -10 22 12 27 68 7 88 -13 13 -41 16 -50 6z"/>
<path d="M7965 4960 c-3 -6 -3 -19 0 -30 7 -23 43 -27 51 -5 12 29 -35 61 -51
35z"/>
<path d="M10128 4408 c-51 -56 -67 -79 -78 -117 -8 -29 -5 -36 25 -69 31 -35
37 -37 93 -36 114 2 175 69 122 136 -12 16 -34 28 -59 32 l-40 6 20 35 c24 39
19 55 -18 55 -17 0 -38 -14 -65 -42z m87 -118 c17 -19 17 -21 0 -40 -25 -28
-63 -26 -77 5 -22 48 39 77 77 35z"/>
<path d="M9451 4108 c-16 -42 7 -104 29 -82 19 19 25 85 9 95 -22 13 -29 11
-38 -13z"/>
<path d="M9539 4123 c-1 -5 0 -12 1 -18 2 -5 6 -26 9 -45 9 -48 33 -46 46 4 8
33 6 40 -10 52 -20 15 -44 18 -46 7z"/>
<path d="M9627 4123 c-4 -3 -2 -12 4 -19 5 -7 12 -25 15 -41 7 -38 20 -49 39
-33 19 16 19 49 -1 78 -15 21 -44 29 -57 15z"/>
<path d="M9740 4075 c0 -70 21 -74 46 -9 19 49 12 63 -28 64 -15 0 -18 -9 -18
-55z"/>
<path d="M9828 4125 c-3 -3 2 -26 10 -50 10 -32 20 -45 33 -45 15 0 19 7 19
38 0 21 -5 43 -12 50 -12 12 -41 16 -50 7z"/>
<path d="M9947 4112 c-29 -31 -21 -60 21 -80 36 -18 39 -18 76 -2 54 25 64 45
35 76 -29 31 -107 34 -132 6z m77 -8 c25 -9 21 -61 -5 -69 -34 -11 -54 36 -27
63 14 14 12 14 32 6z"/>
<path d="M5823 4334 c-60 -64 -78 -103 -53 -119 5 -3 33 -8 62 -10 29 -2 56
-4 61 -4 4 -1 12 -12 17 -26 13 -35 43 -31 74 9 31 41 31 41 7 72 -14 18 -17
34 -14 69 7 56 -7 75 -55 75 -32 0 -45 -8 -99 -66z m87 -39 c0 -41 -33 -58
-70 -35 -12 8 -9 15 19 44 39 40 51 38 51 -9z"/>
<path d="M6314 4126 c-3 -7 -4 -38 -2 -67 2 -39 7 -54 18 -54 20 0 34 74 21
109 -11 28 -28 34 -37 12z"/>
<path d="M6224 4092 c-11 -8 -17 -86 -8 -114 7 -22 30 -23 38 -2 19 51 -2 135
-30 116z"/>
<path d="M6417 4093 c-11 -10 -8 -91 3 -98 17 -11 40 15 40 45 0 27 -31 66
-43 53z"/>
<path d="M6507 4093 c-10 -10 -8 -91 2 -97 16 -11 41 6 47 31 11 44 -24 91
-49 66z"/>
<path d="M6110 4076 c-15 -20 -6 -62 17 -70 21 -9 34 11 31 49 -3 34 -28 44
-48 21z"/>
<path d="M7713 4058 c-14 -19 -33 -90 -27 -100 3 -4 27 -8 53 -8 84 0 120 -53
56 -82 -19 -9 -34 -8 -65 2 -48 16 -73 3 -54 -28 9 -13 28 -18 91 -20 77 -3
81 -1 112 27 60 56 34 116 -56 129 -39 6 -48 11 -48 27 0 18 6 20 51 17 52 -2
83 15 69 38 -9 15 -170 13 -182 -2z"/>
<path d="M8187 3963 c-4 -3 -7 -35 -7 -70 0 -70 16 -89 49 -59 23 21 29 20 51
-6 17 -21 19 -21 25 -5 4 9 2 24 -4 31 -7 8 -9 25 -5 41 6 26 5 27 -23 21 -28
-6 -32 -4 -41 23 -10 29 -30 40 -45 24z"/>
<path d="M8368 3954 c-2 -9 -1 -43 0 -76 3 -49 7 -59 20 -56 21 4 36 115 20
136 -15 17 -36 15 -40 -4z"/>
<path d="M8097 3913 c-9 -8 -9 -128 0 -136 3 -4 15 0 25 10 12 11 18 30 18 63
0 53 -22 85 -43 63z"/>
<path d="M10056 3370 c-72 -47 -69 -129 5 -151 53 -16 67 -34 40 -51 -26 -16
-27 -45 -3 -50 43 -10 78 19 144 120 29 44 23 85 -17 121 -30 26 -44 31 -88
31 -35 0 -62 -7 -81 -20z m122 -76 c4 -30 -21 -47 -58 -39 -33 7 -46 25 -36
51 4 11 17 14 48 12 35 -2 44 -7 46 -24z"/>
<path d="M9807 3063 c-13 -12 -7 -46 10 -65 10 -12 16 -32 15 -54 -2 -24 2
-34 12 -34 28 0 46 12 46 32 0 11 11 34 25 52 28 37 31 52 11 59 -17 7 -36
-11 -36 -34 0 -30 -19 -31 -34 -1 -17 34 -40 54 -49 45z"/>
<path d="M10032 3058 c-7 -7 -12 -16 -12 -21 0 -4 -12 -24 -26 -43 -22 -28
-24 -35 -11 -40 33 -12 62 0 65 28 2 16 11 30 22 33 20 6 33 31 24 46 -8 13
-48 11 -62 -3z"/>
<path d="M9364 3045 c-6 -14 30 -83 50 -97 14 -9 36 2 36 18 0 28 29 26 54 -2
24 -28 25 -28 44 -10 30 26 44 72 27 86 -11 9 -16 7 -25 -9 -14 -28 -28 -26
-52 4 -25 32 -32 31 -47 -1 l-12 -27 -27 27 c-32 30 -40 32 -48 11z"/>
<path d="M9643 3028 c2 -18 0 -41 -5 -52 -14 -26 11 -40 35 -19 13 13 20 14
29 5 7 -7 21 -12 31 -12 14 0 17 4 12 18 -5 9 -8 31 -9 47 -1 27 -4 30 -33 27
-17 -2 -34 2 -38 7 -14 23 -27 10 -22 -21z"/>
<path d="M5826 3343 c-3 -4 -6 -17 -6 -30 0 -21 4 -23 59 -23 33 0 63 -5 66
-10 4 -6 -10 -35 -29 -64 -20 -30 -36 -59 -36 -64 0 -5 -7 -12 -15 -16 -19 -7
-19 -30 0 -46 27 -22 56 4 128 115 62 97 78 134 60 136 -58 5 -223 6 -227 2z"/>
<path d="M6468 3019 c-24 -13 -25 -84 -2 -93 23 -9 22 -9 34 35 17 61 5 80
-32 58z"/>
<path d="M6582 3018 c-16 -16 -15 -37 3 -44 8 -4 15 -15 15 -26 0 -15 5 -18
19 -13 11 3 22 1 26 -5 3 -5 19 -10 36 -10 24 0 29 4 29 23 0 29 -18 47 -47
47 -16 0 -23 6 -23 20 0 23 -38 28 -58 8z"/>
<path d="M6067 3014 c-4 -4 -7 -30 -7 -58 0 -102 41 -101 44 0 1 46 -2 59 -14
62 -9 1 -19 0 -23 -4z"/>
<path d="M6163 2971 c1 -56 12 -64 43 -30 17 19 17 23 3 47 -8 15 -22 28 -31
30 -13 2 -16 -6 -15 -47z"/>
<path d="M6268 3009 c-34 -19 -12 -89 28 -89 17 0 19 27 3 32 -9 3 -9 9 0 25
21 41 8 55 -31 32z"/>
<path d="M6354 3005 c-4 -8 -3 -22 0 -31 4 -9 2 -22 -4 -29 -8 -10 -4 -21 14
-41 22 -25 27 -27 36 -14 11 17 13 73 4 108 -7 25 -41 30 -50 7z"/>
<path d="M7748 2980 c-20 -4 -44 -12 -52 -20 -21 -17 -20 -60 1 -75 15 -12 15
-15 -10 -45 -34 -40 -34 -45 2 -81 26 -26 36 -29 93 -29 112 0 166 55 111 112
-26 27 -27 30 -10 42 40 30 2 89 -63 98 -19 3 -52 2 -72 -2z m60 -42 c18 -18
15 -45 -5 -50 -33 -8 -53 3 -53 27 0 32 35 46 58 23z m23 -114 c11 -14 10 -19
-10 -35 -13 -11 -27 -19 -31 -19 -4 0 -18 8 -31 19 -20 16 -21 21 -10 35 7 9
26 16 41 16 15 0 34 -7 41 -16z"/>
<path d="M8022 2858 c-13 -13 -5 -95 11 -115 5 -7 17 -13 27 -13 15 0 17 9 16
58 -2 77 -21 103 -54 70z"/>
<path d="M8420 2825 c-28 -30 -47 -32 -55 -5 -8 26 -45 27 -45 2 0 -28 62 -95
80 -87 18 7 60 71 60 90 0 25 -17 25 -40 0z"/>
<path d="M8124 2813 c-9 -34 14 -77 44 -81 22 -3 23 -1 17 35 -11 64 -16 73
-35 73 -13 0 -22 -9 -26 -27z"/>
<path d="M8236 2800 c-3 -22 -7 -43 -9 -47 -1 -5 8 -9 19 -11 27 -4 37 19 28
64 -9 46 -30 43 -38 -6z"/>
<path d="M9980 2264 c-9 -3 -21 -18 -27 -34 -9 -24 -17 -30 -42 -30 -41 0 -50
-24 -22 -54 24 -26 19 -36 -20 -36 -35 0 -46 -16 -26 -38 8 -9 17 -28 19 -42
5 -39 42 -39 58 0 11 27 36 50 54 50 3 0 6 -18 6 -41 0 -36 2 -40 22 -37 15 2
29 16 41 41 13 28 22 37 35 33 9 -3 24 -1 31 4 12 7 11 12 -10 29 -27 22 -20
37 23 45 15 2 32 7 38 11 17 11 11 32 -11 38 -16 4 -20 11 -16 26 6 26 -16 46
-38 33 -9 -5 -22 -20 -29 -33 -14 -30 -51 -33 -52 -4 -2 48 -2 47 -34 39z m40
-134 c0 -22 -39 -34 -47 -14 -7 19 15 44 33 37 8 -3 14 -13 14 -23z"/>
<path d="M9494 2013 c-16 -9 -41 -22 -55 -29 -14 -8 -34 -23 -43 -33 -17 -19
-17 -20 3 -31 16 -8 21 -20 21 -50 0 -48 11 -52 124 -46 86 5 96 11 96 63 0
17 5 35 10 38 18 11 10 23 -37 55 -68 46 -86 51 -119 33z m93 -91 c3 -13 1
-34 -6 -48 -9 -20 -18 -24 -51 -24 -56 0 -80 15 -80 48 0 33 7 42 45 64 28 15
31 15 58 0 15 -9 30 -27 34 -40z"/>
<path d="M5996 2205 c-9 -25 -8 -27 19 -59 40 -46 30 -61 -40 -61 -53 0 -60
-2 -60 -20 0 -18 7 -20 57 -20 31 0 59 -3 63 -7 4 -4 -2 -22 -14 -41 -24 -38
-27 -62 -9 -73 12 -8 58 42 58 64 0 25 36 10 72 -30 29 -33 39 -40 46 -29 10
14 4 51 -8 51 -4 0 -12 11 -18 25 -14 30 -10 33 63 37 42 3 50 6 50 23 0 18
-7 20 -57 20 -31 0 -60 3 -64 8 -4 4 2 20 13 35 26 36 35 64 24 81 -14 21 -38
6 -61 -39 -27 -53 -50 -52 -75 3 -21 44 -48 59 -59 32z"/>
<path d="M6438 1946 c-6 -14 -20 -26 -32 -28 -30 -4 -26 -30 7 -46 16 -8 27
-21 27 -33 0 -28 17 -23 34 10 9 16 25 31 37 34 26 7 20 31 -10 35 -12 2 -26
14 -31 28 -12 30 -18 30 -32 0z"/>
<path d="M7763 1893 c-12 -2 -36 -20 -53 -39 -52 -59 -39 -145 29 -191 108
-73 241 44 185 162 -9 20 -26 43 -38 50 -24 16 -90 26 -123 18z m87 -125 c0
-73 -41 -104 -74 -56 -19 26 -20 53 -5 96 22 63 79 34 79 -40z"/>
<path d="M8327 1695 c-17 -24 -23 -25 -122 -25 -94 0 -105 2 -115 20 -15 28
-50 26 -50 -3 0 -43 16 -47 165 -47 77 0 146 4 153 9 15 9 13 63 -3 67 -5 2
-18 -8 -28 -21z"/>
<path d="M6375 15620 c-4 -6 10 -10 35 -10 25 0 39 4 35 10 -3 6 -19 10 -35
10 -16 0 -32 -4 -35 -10z"/>
<path d="M9618 15613 c7 -3 16 -2 19 1 4 3 -2 6 -13 5 -11 0 -14 -3 -6 -6z"/>
<path d="M6590 15560 c0 -6 16 -8 43 -4 58 9 59 14 4 14 -26 0 -47 -5 -47 -10z"/>
<path d="M6485 15550 c-11 -5 -45 -9 -76 -9 -31 -1 -70 -8 -85 -16 l-29 -15
25 0 c42 0 204 31 215 41 11 11 -22 11 -50 -1z"/>
<path d="M7540 15430 c-47 -5 -152 -11 -235 -15 -82 -3 -181 -10 -220 -15 -38
-5 -112 -12 -164 -16 -52 -3 -108 -10 -125 -15 -17 -5 -81 -14 -143 -19 -61
-6 -124 -15 -140 -21 -15 -6 -48 -14 -73 -19 -99 -18 -307 -86 -338 -110 -15
-13 -28 -17 -30 -11 -5 14 -32 14 -32 1 0 -6 -11 -15 -25 -20 -31 -12 -32 -26
-3 -33 l23 -6 -22 -21 c-12 -11 -26 -20 -31 -20 -5 0 -22 -19 -37 -42 -16 -24
-36 -55 -47 -70 -10 -15 -18 -33 -18 -41 0 -7 -4 -17 -9 -22 -11 -12 -47 -117
-56 -165 -4 -19 -14 -44 -21 -55 -8 -11 -14 -27 -14 -37 0 -21 -16 -24 -23 -5
-7 16 -27 -10 -27 -35 0 -20 26 -24 33 -5 2 6 8 9 12 5 10 -10 -17 -152 -43
-228 -3 -8 -4 -19 -3 -23 1 -7 -5 -46 -32 -196 -7 -36 -17 -66 -23 -68 -14 -5
-14 130 0 139 13 9 27 160 15 172 -5 6 -10 4 -12 -5 -13 -44 -47 -242 -47
-272 0 -19 -7 -48 -15 -63 -21 -40 -20 -130 1 -138 9 -3 17 -6 18 -6 1 0 2 10
2 23 1 67 5 97 15 97 18 0 6 -125 -14 -147 -10 -12 -14 -27 -10 -41 5 -21 -3
-27 -34 -23 -7 1 -14 -21 -18 -56 -3 -32 -13 -94 -20 -138 -31 -172 -44 -264
-51 -350 -4 -49 -11 -98 -16 -108 -11 -22 -23 -168 -37 -442 -6 -104 -15 -217
-21 -250 -6 -33 -15 -136 -20 -230 -5 -93 -15 -249 -21 -345 -13 -221 -7
-1401 10 -1630 6 -91 18 -235 26 -320 8 -85 18 -216 21 -290 3 -74 10 -151 15
-170 5 -19 9 -53 9 -75 0 -22 7 -76 15 -120 9 -44 27 -141 40 -215 59 -317
105 -508 146 -605 5 -11 18 -47 30 -80 12 -33 28 -69 35 -80 8 -11 14 -27 14
-36 0 -9 8 -34 18 -55 23 -52 158 -276 180 -300 10 -10 38 -46 64 -79 95 -123
312 -311 418 -362 42 -21 49 -21 85 -8 22 8 59 14 83 15 48 0 56 -6 127 -105
24 -34 56 -73 71 -88 66 -66 289 -216 345 -232 13 -3 45 -17 71 -31 25 -13 66
-28 90 -33 23 -5 63 -13 88 -19 25 -6 68 -16 95 -22 160 -36 562 -51 790 -29
260 25 410 58 565 127 30 13 65 28 77 33 52 20 254 163 315 224 51 50 69 75
74 103 15 85 42 96 160 65 62 -17 66 -17 102 2 82 43 255 181 348 277 181 186
325 439 423 738 72 218 63 184 125 452 9 37 16 82 16 100 0 18 6 69 14 113 31
172 68 485 81 675 3 47 8 95 11 107 5 27 21 255 31 468 4 88 8 471 7 850 0
544 -4 737 -17 910 -25 325 -44 549 -56 645 -6 47 -17 159 -26 250 -9 91 -22
211 -30 267 -8 56 -15 129 -15 163 0 34 -6 91 -14 128 -8 37 -19 108 -25 157
-19 150 -83 522 -100 585 -5 19 -12 62 -16 95 -9 84 -61 289 -96 382 -17 43
-38 98 -47 123 -23 61 -142 182 -207 210 -125 55 -490 149 -575 150 -19 0 -80
7 -135 16 -112 18 -231 28 -480 44 -93 5 -188 13 -210 16 -64 10 -941 13
-1035 4z m-1480 -280 c0 -5 -4 -10 -10 -10 -5 0 -10 5 -10 10 0 6 5 10 10 10
6 0 10 -4 10 -10z m-466 -1626 c3 -79 -6 -130 -17 -100 -7 18 2 180 10 172 2
-2 5 -34 7 -72z m-24 -213 c0 -70 -11 -141 -22 -141 -9 0 -9 165 0 183 10 22
22 1 22 -42z m-35 -369 c-4 -41 -9 -72 -11 -69 -7 7 -12 161 -6 192 l6 30 9
-40 c4 -22 5 -73 2 -113z m-36 -255 l0 -52 -15 39 c-8 22 -12 48 -8 58 10 34
24 7 23 -45z m1561 7 c0 -8 -4 -14 -10 -14 -5 0 -10 9 -10 21 0 11 5 17 10 14
6 -3 10 -13 10 -21z m209 -20 c17 -14 51 -56 76 -95 31 -46 53 -69 66 -69 18
0 19 7 18 86 -1 88 5 103 42 104 36 0 48 -23 49 -95 3 -125 0 -180 -9 -194 -6
-9 -32 -15 -74 -17 l-65 -3 -63 74 c-35 41 -74 87 -86 102 -11 16 -25 25 -29
21 -4 -5 -8 -46 -8 -92 -1 -46 -5 -88 -9 -92 -13 -14 -78 -9 -87 7 -14 21 -11
256 3 268 15 11 49 18 104 20 31 1 49 -5 72 -25z m638 11 c12 -3 25 -14 28
-25 9 -27 34 -25 44 4 11 28 25 34 71 26 34 -5 35 -6 38 -57 4 -62 15 -67 58
-22 45 48 83 71 127 80 76 13 90 -13 30 -57 -42 -31 -93 -82 -93 -95 0 -4 31
-32 70 -61 41 -32 69 -61 70 -72 0 -16 -6 -18 -60 -14 -58 4 -63 7 -120 63
-41 41 -63 56 -75 51 -14 -5 -16 -14 -11 -41 10 -49 -7 -75 -48 -75 -50 0 -58
17 -57 119 1 49 -2 97 -6 107 -6 16 -7 16 -14 -2 -11 -27 -10 -96 0 -113 7
-10 3 -24 -10 -42 -10 -15 -19 -32 -19 -38 0 -22 -53 -31 -191 -30 -140 0
-141 0 -166 27 -24 26 -25 31 -21 134 2 70 7 111 16 120 20 20 260 29 339 13z
m581 -142 l3 -142 -25 -7 c-14 -3 -34 -3 -45 1 -20 6 -21 14 -21 145 0 149 0
150 55 147 l30 -2 3 -142z m294 141 c18 -5 46 -48 70 -110 9 -22 31 -65 48
-94 48 -82 48 -90 -6 -90 -37 0 -46 4 -55 24 -11 23 -18 25 -93 28 -101 4
-111 2 -125 -28 -9 -20 -18 -24 -51 -24 -26 0 -43 5 -46 14 -7 19 113 248 144
273 14 12 82 16 114 7z m-3282 -119 c0 -37 -4 -65 -10 -65 -11 0 -14 113 -3
123 12 13 13 7 13 -58z m1560 -156 c0 -10 -4 -19 -10 -19 -5 0 -10 12 -10 26
0 14 4 23 10 19 6 -3 10 -15 10 -26z m-1590 -250 c0 -11 -4 -18 -10 -14 -5 3
-7 12 -3 20 7 21 13 19 13 -6z m2800 -609 c11 -6 132 -11 289 -13 149 -1 271
-5 271 -9 0 -6 230 -19 285 -16 11 1 47 1 80 1 33 -1 76 -1 95 -1 59 0 72 0
155 -6 94 -7 257 -16 410 -22 151 -6 162 -7 177 -21 6 -7 21 -13 32 -13 39 0
64 -12 76 -36 8 -13 19 -24 27 -24 15 0 18 -16 4 -24 -5 -3 -40 -7 -78 -9 -82
-5 -93 -10 -93 -43 l0 -24 -411 0 c-264 0 -417 4 -430 10 -10 6 -19 19 -19 30
0 26 -21 30 -131 29 -164 -3 -166 -2 -181 29 -13 26 -17 27 -92 30 -90 3 -96
-1 -96 -65 0 -57 8 -73 36 -73 17 0 24 -6 24 -19 0 -25 19 -39 60 -43 25 -2
36 -8 38 -23 8 -43 21 -47 136 -45 141 3 136 4 136 -20 0 -13 -7 -20 -20 -20
-26 0 -39 -27 -33 -68 6 -38 -10 -62 -37 -55 -34 9 -69 -6 -76 -31 -3 -13 -14
-26 -24 -29 -11 -3 -20 -16 -22 -33 -3 -29 -4 -29 -78 -34 -73 -5 -75 -6 -78
-32 -3 -26 -6 -28 -51 -28 -49 0 -71 -12 -71 -41 0 -15 -10 -17 -65 -16 -78 2
-86 -6 -83 -78 3 -41 7 -52 25 -60 13 -5 27 -22 32 -37 l10 -28 105 0 c100 0
105 1 108 22 4 31 26 34 37 5 9 -22 17 -26 80 -32 57 -6 71 -11 76 -26 4 -10
15 -24 26 -29 26 -14 24 -34 -4 -53 -19 -12 -23 -24 -24 -66 0 -29 -3 -55 -6
-58 -15 -14 -27 13 -27 61 0 39 -5 57 -18 69 -10 10 -21 14 -24 11 -4 -3 -9 4
-13 15 -10 32 -40 44 -59 25 -22 -22 -20 -32 14 -64 29 -27 37 -59 24 -94 -9
-23 -21 -20 -28 8 -6 26 -42 44 -56 29 -4 -4 -10 -17 -12 -28 -4 -23 -38 -34
-38 -13 0 48 -65 58 -76 12 -14 -54 -37 -9 -25 48 l7 33 69 0 c69 0 70 0 73
28 5 46 -10 55 -86 51 -62 -2 -68 -5 -76 -28 -13 -35 -35 -33 -47 4 -10 27
-15 30 -53 30 -47 0 -66 -13 -66 -46 0 -28 13 -37 65 -44 38 -5 40 -7 41 -40
1 -19 2 -43 3 -53 0 -10 12 -22 26 -27 38 -15 32 -40 -10 -40 -39 0 -55 20
-55 67 0 38 -16 53 -58 53 -28 0 -35 5 -47 34 -8 18 -21 36 -30 39 -21 9 -19
24 4 32 12 3 21 17 23 33 2 21 9 28 31 30 26 3 28 6 25 40 -3 32 -7 37 -31 40
-23 3 -28 -1 -33 -28 -7 -33 -24 -51 -24 -26 0 50 -107 79 -130 36 -6 -12 -8
-29 -5 -40 6 -20 38 -35 54 -26 11 7 41 -3 41 -14 0 -4 -15 -24 -33 -44 l-33
-36 -18 31 c-12 20 -23 28 -33 24 -25 -9 -53 5 -64 32 -12 33 -62 30 -67 -5
-5 -31 79 -117 107 -109 24 6 33 -1 48 -35 7 -16 19 -28 28 -28 8 0 15 -9 15
-20 0 -11 -2 -20 -4 -20 -2 0 -12 -3 -20 -6 -11 -4 -28 6 -50 31 -24 26 -44
38 -67 39 -18 1 -34 7 -37 14 -8 26 -87 112 -100 110 -8 -2 -20 -12 -26 -23
-6 -11 -12 -22 -14 -24 -4 -7 -62 58 -62 69 0 5 9 14 21 20 15 9 19 19 17 43
-2 27 -7 32 -28 32 -16 0 -28 -8 -35 -22 -11 -26 -35 -31 -35 -8 0 18 -37 38
-56 31 -8 -3 -14 -19 -14 -36 0 -23 6 -33 25 -42 14 -6 25 -15 25 -20 0 -5 11
-20 25 -34 l25 -25 -21 -18 c-14 -11 -22 -30 -24 -56 -4 -63 -13 -77 -49 -73
-36 3 -48 33 -18 43 16 4 21 17 24 56 5 72 -2 83 -53 89 -36 4 -45 9 -47 27
-4 28 -49 43 -63 22 -18 -28 -5 -50 69 -124 28 -29 28 -39 -3 -59 -31 -21 -32
-41 -1 -70 18 -16 26 -35 28 -67 2 -34 8 -46 25 -54 22 -9 38 -33 29 -42 -7
-7 -177 -10 -236 -4 -40 4 -56 10 -58 22 -2 11 6 19 21 23 20 5 25 14 30 53 6
44 4 50 -23 74 -37 31 -38 45 -5 53 18 5 25 13 25 31 0 16 6 25 15 25 11 0 15
-12 15 -44 0 -69 50 -104 70 -50 19 50 12 94 -20 122 -16 15 -30 32 -30 39 0
7 -9 17 -20 23 -27 14 -25 28 5 42 32 14 33 51 3 73 -22 15 -24 14 -40 -7 -9
-13 -25 -32 -35 -43 -10 -11 -20 -28 -23 -39 -8 -29 -29 -31 -39 -3 -5 14 -20
32 -32 40 l-22 16 52 50 c28 27 51 55 51 63 0 21 21 38 48 38 17 0 27 -8 35
-30 7 -17 21 -33 32 -36 11 -3 26 -18 34 -35 11 -26 17 -29 61 -29 55 0 60 7
60 79 0 41 -4 50 -25 61 -14 7 -25 21 -25 31 0 15 9 17 58 17 80 0 110 -26 52
-47 -22 -7 -30 -16 -30 -33 0 -34 14 -50 41 -46 18 2 25 10 27 31 4 35 18 34
37 -3 15 -29 18 -30 80 -30 61 0 65 -2 71 -25 8 -33 28 -42 92 -39 81 3 82 3
82 22 0 10 11 28 25 40 14 12 25 30 25 40 0 11 -11 31 -25 46 -14 15 -25 31
-25 36 0 5 -9 11 -19 15 -11 3 -24 19 -30 35 -8 25 -15 30 -43 30 -55 0 -77
33 -33 50 26 10 33 42 16 69 -14 22 -60 5 -67 -24 -8 -32 -22 -32 -30 -1 -3
14 -17 32 -30 41 -14 9 -22 20 -19 25 4 6 78 10 174 10 172 0 191 4 191 41 0
10 11 20 25 23 15 4 27 16 31 31 3 13 14 27 24 30 14 4 19 19 22 58 6 75 0 80
-130 82 -60 1 -114 5 -121 9 -20 13 -12 36 14 36 13 0 28 8 33 18 13 24 -3 62
-27 62 -15 0 -22 9 -27 34 -6 35 -7 35 -53 31 -25 -2 -49 -4 -53 -4 -4 -1 -8
-13 -10 -28 -3 -25 -7 -28 -48 -31 -50 -4 -72 -17 -68 -41 3 -13 -9 -16 -70
-19 -72 -3 -73 -3 -79 -32 -6 -30 -13 -34 -66 -30 -23 1 -28 -3 -33 -29 -6
-28 -9 -30 -57 -33 -45 -3 -52 -6 -57 -27 -8 -36 -26 -36 -33 -2 -6 26 -11 30
-52 36 -52 8 -75 -4 -75 -41 0 -27 3 -27 -108 -24 l-83 2 -12 -31 c-10 -26
-17 -31 -45 -31 -25 0 -35 5 -39 19 -8 30 -44 42 -113 39 -59 -3 -65 -5 -70
-28 -5 -19 -13 -25 -35 -27 -17 0 -36 -2 -43 -2 -7 -1 -18 -14 -23 -30 -17
-48 -64 -48 -91 0 -21 36 -63 40 -73 8 -6 -17 0 -29 24 -51 37 -35 33 -48 -15
-48 -28 0 -36 5 -45 27 -5 15 -19 33 -29 40 -11 8 -20 20 -20 28 0 12 -28 35
-43 35 -3 0 -12 -11 -21 -25 -16 -24 -16 -26 16 -60 72 -77 88 -96 88 -110 0
-14 19 -21 70 -27 14 -2 25 -9 25 -18 0 -11 -12 -15 -45 -15 -41 0 -45 -2 -48
-27 -2 -19 -11 -29 -33 -37 -29 -10 -29 -10 -29 -90 0 -77 -1 -80 -30 -101
-35 -25 -37 -40 -10 -65 24 -21 47 -14 60 20 17 45 38 27 36 -30 -1 -22 -8
-33 -28 -43 -17 -8 -28 -21 -28 -33 0 -12 -10 -23 -25 -29 -14 -5 -29 -20 -34
-33 -5 -14 -17 -27 -26 -31 -11 -4 -15 -15 -13 -38 2 -26 8 -34 27 -36 26 -4
41 12 41 46 0 13 6 22 15 22 9 0 15 -9 15 -22 0 -28 10 -42 33 -51 11 -4 17
-14 15 -24 -3 -15 -15 -18 -78 -19 -100 0 -107 2 -114 36 -6 32 -23 38 -57 20
-29 -16 -23 -47 11 -65 33 -17 39 -41 13 -49 -10 -3 -43 -4 -74 -1 -74 6 -113
-5 -117 -34 -4 -24 -42 -44 -67 -35 -8 3 -17 16 -21 27 -3 12 -18 34 -33 49
-14 14 -32 33 -39 42 -10 12 -17 14 -32 6 -27 -15 -25 -42 5 -70 19 -18 25
-34 25 -67 0 -50 -13 -55 -35 -12 -15 28 -19 30 -68 27 -49 -3 -52 -5 -55 -31
-3 -23 2 -29 27 -38 39 -14 44 -49 7 -49 -14 0 -27 -4 -30 -8 -3 -5 -6 -132
-7 -282 l-1 -275 32 -13 c37 -15 35 -36 -4 -40 -50 -6 -48 -69 4 -89 38 -14
39 -33 1 -33 -17 0 -33 -4 -36 -10 -13 -20 -20 -9 -21 33 -1 57 -11 135 -19
147 -3 5 -2 10 3 10 10 0 9 23 -4 100 -4 25 -7 50 -5 57 1 6 -3 14 -9 18 -5 3
-10 24 -10 46 0 24 4 38 10 34 6 -4 10 7 10 24 0 17 -5 31 -11 31 -6 0 -10 24
-10 58 0 31 -2 91 -4 132 -6 126 -5 489 1 590 4 52 6 123 6 158 0 34 3 62 7
62 13 0 21 42 12 54 -14 19 -11 114 5 126 9 9 14 33 14 77 0 36 6 92 14 126 8
34 21 92 30 130 9 37 25 77 36 89 11 12 22 29 25 39 8 23 59 46 120 53 28 3
68 9 90 13 22 3 55 5 73 4 18 0 41 3 50 8 10 5 83 12 162 16 80 3 159 10 175
15 17 5 39 9 50 8 50 -2 405 12 419 18 9 4 16 1 16 -6 0 -9 14 -10 48 -6 50 6
100 6 409 5 106 0 197 2 202 5 5 4 63 4 128 0 65 -3 125 -6 133 -5 115 11 143
12 153 4 20 -14 97 -7 115 11 19 19 18 19 42 6z m-190 -285 c0 -16 -27 -32
-37 -22 -3 4 -3 13 0 22 8 20 37 20 37 0z m-682 -133 c2 -12 -1 -22 -6 -22
-15 0 -34 28 -27 40 10 17 30 6 33 -18z m-378 -58 c0 -25 -2 -26 -36 -21 -32
5 -37 3 -52 -24 -14 -25 -22 -29 -51 -27 -42 4 -52 24 -17 38 14 5 26 15 26
23 0 24 21 34 75 36 53 1 55 1 55 -25z m267 11 c7 -20 -2 -29 -21 -22 -9 4
-13 13 -10 22 8 19 23 19 31 0z m-47 -64 c0 -27 -15 -34 -31 -15 -10 13 -10
17 2 25 22 13 29 11 29 -10z m2186 -15 c3 -13 16 -28 30 -35 21 -9 24 -17 24
-61 0 -41 -3 -50 -18 -50 -23 0 -42 -19 -42 -42 0 -10 -7 -18 -15 -18 -8 0
-22 -15 -31 -32 -16 -31 -18 -31 -28 -14 -6 11 -21 30 -33 42 -33 31 -31 88 2
110 14 9 25 25 25 35 0 12 10 23 25 29 14 5 25 17 25 28 0 38 27 44 36 8z
m-2615 -47 c13 -25 -2 -31 -72 -27 -47 3 -54 6 -57 25 -3 21 0 23 58 22 49 -1
62 -5 71 -20z m367 -6 c3 -19 -1 -23 -25 -23 -38 0 -57 14 -50 35 11 26 71 16
75 -12z m2090 -5 c-2 -13 -7 -23 -13 -23 -5 0 -11 10 -13 23 -2 15 2 22 13 22
11 0 15 -7 13 -22z m-2178 -50 c0 -28 -15 -39 -35 -25 -10 8 -15 19 -11 25 10
16 46 15 46 0z m2081 -23 c5 -45 -2 -75 -15 -75 -26 0 -35 55 -15 92 12 22 27
14 30 -17z m-211 -25 c0 -36 -4 -50 -14 -50 -19 0 -22 13 -18 61 3 25 9 39 18
39 10 0 14 -14 14 -50z m-1990 -34 c-13 -13 -35 7 -25 24 5 8 11 8 21 -1 10
-8 12 -15 4 -23z m3037 -6 c10 -26 16 -30 50 -30 45 0 59 8 64 35 3 11 11 20
19 20 8 0 16 -9 18 -20 6 -30 22 -45 48 -45 37 0 30 -28 -8 -32 -31 -3 -33 -5
-33 -43 0 -35 3 -40 25 -43 46 -6 54 -11 40 -27 -12 -15 -9 -79 5 -116 4 -12
-5 -15 -50 -16 -60 -2 -85 -14 -85 -44 0 -28 -17 -23 -32 9 -11 22 -20 27 -51
27 -34 1 -56 15 -57 37 0 3 14 11 31 17 39 13 37 50 -4 69 -34 16 -32 44 3 52
45 11 35 80 -12 80 -12 0 -24 -10 -30 -28 -6 -16 -21 -33 -32 -38 -12 -5 -22
-20 -24 -36 -3 -21 3 -29 25 -40 33 -15 37 -41 8 -46 -11 -2 -24 -8 -29 -12
-14 -13 2 -58 23 -65 11 -3 24 -19 29 -35 9 -25 16 -29 54 -32 36 -3 44 -7 46
-26 2 -13 14 -27 28 -32 13 -5 24 -16 24 -25 0 -9 -11 -20 -24 -25 -14 -5 -26
-19 -28 -31 -2 -12 -9 -24 -15 -27 -9 -2 -13 10 -13 41 0 66 -7 77 -49 77 -43
0 -53 6 -68 43 -7 15 -17 27 -23 27 -6 0 -15 12 -20 26 -6 14 -19 28 -30 31
-28 7 -26 41 3 45 17 2 23 11 25 36 3 26 -1 34 -21 41 -29 11 -43 40 -22 46 8
3 22 7 30 10 22 7 19 52 -6 65 -22 13 -49 -1 -49 -26 0 -25 -20 -25 -30 1 -13
34 -37 42 -60 19 -21 -22 -11 -64 14 -64 9 0 19 -12 22 -26 4 -14 17 -30 30
-34 31 -12 31 -38 0 -50 -13 -5 -27 -14 -31 -19 -10 -18 3 -45 27 -56 33 -14
35 -41 4 -49 -17 -4 -26 -13 -26 -26 0 -24 -20 -37 -31 -19 -5 8 -9 28 -8 44
2 48 0 51 -26 63 -32 15 -32 38 -1 46 33 8 45 45 20 63 -27 20 -49 12 -52 -20
-4 -35 -23 -34 -44 3 -9 17 -24 30 -33 30 -11 0 -15 7 -13 23 2 18 11 23 48
27 l45 5 3 58 3 57 150 0 151 0 11 30 c6 17 16 30 22 30 6 0 16 -13 22 -30z
m-3197 -46 c0 -16 -16 -19 -25 -4 -8 13 4 32 16 25 5 -4 9 -13 9 -21z m108 3
c2 -10 -3 -17 -12 -17 -18 0 -29 16 -21 31 9 14 29 6 33 -14z m-266 -69 c-15
-15 -26 -4 -18 18 5 13 9 15 18 6 9 -9 9 -15 0 -24z m111 17 c7 -18 -9 -29
-30 -21 -12 5 -13 9 -3 21 16 19 26 19 33 0z m102 -8 c0 -26 -20 -25 -23 2 -3
16 1 22 10 19 7 -3 13 -12 13 -21z m1928 14 c12 -2 8 -39 -5 -43 -26 -9 -68 5
-68 22 0 20 14 28 45 24 11 -1 23 -3 28 -3z m163 -25 c8 -33 1 -79 -13 -83
-16 -6 -25 30 -17 72 7 40 21 46 30 11z m214 4 c0 -21 -24 -28 -35 -10 -8 14
3 30 21 30 8 0 14 -9 14 -20z m-2574 -66 c-5 -13 -10 -14 -18 -6 -6 6 -8 18
-4 28 5 13 10 14 18 6 6 -6 8 -18 4 -28z m2934 -69 c7 -13 21 -27 32 -31 10
-3 18 -14 18 -24 0 -11 10 -25 23 -31 29 -16 37 -28 37 -61 0 -43 -10 -61 -26
-47 -8 6 -14 16 -14 21 0 5 -17 29 -37 54 -26 30 -44 44 -58 42 -30 -4 -31
-43 -1 -79 14 -17 26 -35 26 -40 0 -5 11 -14 25 -19 43 -17 26 -50 -25 -50
-11 0 -25 10 -31 23 -7 12 -20 31 -31 42 -77 83 -80 89 -62 102 10 7 21 13 25
13 4 0 10 11 13 24 3 14 15 28 26 31 11 3 20 14 20 24 0 37 21 41 40 6z
m-2228 -67 c21 -23 38 -47 38 -53 0 -7 11 -17 25 -23 15 -7 25 -20 25 -33 0
-19 -4 -21 -37 -14 -21 4 -38 8 -38 8 -12 39 -28 58 -48 55 -14 -2 -23 -11
-25 -26 -2 -12 -16 -29 -33 -37 -16 -9 -29 -24 -29 -34 0 -10 -11 -23 -25 -29
-14 -6 -25 -18 -25 -26 0 -9 -9 -20 -19 -25 -10 -6 -24 -24 -30 -41 -9 -27
-13 -30 -31 -20 -11 6 -20 17 -20 24 0 8 -10 20 -22 28 -15 10 -19 20 -15 32
6 15 14 17 47 11 39 -7 41 -6 55 29 9 20 22 36 29 36 8 0 19 14 25 30 5 17 17
30 25 30 16 0 32 41 23 62 -2 7 -1 23 4 36 14 37 56 29 101 -20z m1911 -13
c-4 -57 18 -76 84 -74 69 3 85 -11 49 -44 -32 -30 -32 -38 0 -77 31 -36 23
-53 -22 -48 -30 3 -31 7 -50 106 -4 20 -9 22 -39 16 -32 -6 -35 -4 -49 30 -8
20 -22 39 -31 42 -21 8 -19 27 5 42 11 7 20 21 20 33 0 14 5 19 18 17 13 -3
16 -12 15 -43z m-2503 -25 c0 -11 -6 -20 -13 -20 -19 0 -27 10 -20 26 8 21 33
17 33 -6z m740 0 c0 -4 -7 -10 -15 -13 -16 -7 -29 8 -20 23 6 10 35 2 35 -10z
m-900 -65 c0 -26 -7 -30 -28 -17 -16 10 -5 42 14 42 8 0 14 -10 14 -25z m105
0 c0 -10 -5 -20 -11 -22 -13 -4 -27 24 -18 38 9 15 29 4 29 -16z m2431 15 c8
0 19 -11 24 -25 5 -14 21 -30 35 -35 14 -5 25 -16 25 -23 0 -8 9 -22 20 -32
22 -20 27 -57 8 -52 -6 1 -19 -13 -28 -31 -21 -42 -40 -25 -40 35 0 29 -5 46
-15 49 -8 3 -23 21 -34 40 -36 60 -71 36 -67 -45 1 -27 9 -48 19 -56 23 -17
21 -42 -3 -50 -24 -8 -60 10 -60 30 0 8 -9 19 -20 25 -25 14 -26 36 -1 50 15
8 21 23 23 63 3 51 4 52 38 58 19 4 41 5 48 3 8 -2 20 -4 28 -4z m-1226 -15
c0 -8 12 -28 28 -45 15 -16 39 -44 55 -60 30 -35 31 -38 16 -77 -10 -27 -11
-27 -22 -8 -6 11 -32 46 -59 78 -45 55 -61 101 -41 120 11 12 23 8 23 -8z
m100 0 c0 -8 -4 -15 -9 -15 -5 0 -11 7 -15 15 -3 9 0 15 9 15 8 0 15 -7 15
-15z m315 -3 c0 -18 -20 -15 -23 4 -3 10 1 15 10 12 7 -3 13 -10 13 -16z
m1565 -3 c0 -25 -33 -22 -38 4 -2 12 3 17 17 17 15 0 21 -6 21 -21z m389 4 c7
-6 4 -70 -3 -82 -8 -13 -46 18 -46 36 0 8 -13 16 -30 20 -28 5 -38 21 -23 37
7 6 93 -2 102 -11z m-2949 -58 c0 -8 -7 -15 -15 -15 -8 0 -15 7 -15 15 0 8 7
15 15 15 8 0 15 -7 15 -15z m740 -5 c0 -23 -10 -26 -28 -8 -18 18 -15 28 8 28
13 0 20 -7 20 -20z m313 -9 c4 -18 14 -32 27 -36 28 -9 25 -32 -5 -39 -15 -4
-25 -14 -25 -25 0 -33 -13 -31 -46 7 -36 41 -43 62 -18 62 9 0 21 14 27 30 14
38 33 38 40 1z m1087 -2 c0 -20 -15 -26 -25 -9 -9 15 3 43 15 35 5 -3 10 -15
10 -26z m258 8 c2 -10 -3 -17 -12 -17 -10 0 -16 9 -16 21 0 24 23 21 28 -4z
m107 -62 c0 -54 -4 -80 -12 -82 -7 -3 -13 1 -13 8 0 7 -14 27 -31 45 l-31 32
25 17 c14 9 28 27 31 41 4 14 12 24 19 21 8 -2 12 -29 12 -82z m105 60 c0 -7
14 -23 30 -35 17 -12 30 -28 30 -35 0 -8 11 -22 24 -31 31 -19 25 -39 -13 -42
-39 -3 -101 71 -101 121 0 18 3 37 6 40 10 9 24 -2 24 -18z m-2492 -74 c5 -49
-3 -64 -28 -51 -11 6 -20 17 -20 25 0 8 -9 19 -20 25 -22 12 -27 36 -8 42 7 3
26 2 43 -2 25 -5 31 -11 33 -39z m-163 29 c3 -5 3 -15 0 -20 -7 -12 -45 5 -45
20 0 13 37 13 45 0z m573 -32 c4 -43 -26 -72 -62 -59 -28 11 -27 35 2 39 16 3
25 12 29 33 8 40 27 31 31 -13z m296 36 c9 -3 16 -12 16 -20 0 -7 11 -21 25
-30 28 -18 33 -39 11 -47 -25 -10 -57 5 -72 34 -8 16 -21 29 -29 29 -8 0 -15
9 -15 20 0 21 30 27 64 14z m536 -20 c0 -8 -7 -14 -15 -14 -15 0 -21 21 -9 33
10 9 24 -2 24 -19z m98 -8 c-2 -10 -7 -13 -17 -7 -8 6 -11 16 -7 27 8 21 30 4
24 -20z m902 -2 c0 -8 -9 -14 -20 -14 -19 0 -28 28 -13 43 9 9 33 -12 33 -29z
m-785 -19 c0 -40 0 -40 -41 -43 -31 -2 -43 1 -48 13 -4 12 0 19 15 22 11 3 25
17 30 30 15 40 44 26 44 -22z m625 24 c0 -15 -4 -19 -16 -15 -9 3 -18 6 -20 6
-2 0 -4 7 -4 15 0 8 9 15 20 15 14 0 20 -7 20 -21z m670 0 c0 -24 -23 -21 -28
4 -2 10 3 17 12 17 10 0 16 -9 16 -21z m-2873 -53 c-4 -9 -11 -16 -17 -16 -11
0 -14 33 -3 44 11 10 26 -11 20 -28z m-99 7 c-4 -22 -22 -20 -26 1 -2 10 3 16
13 16 10 0 15 -7 13 -17z m1250 -7 c3 -12 -1 -17 -10 -14 -7 3 -15 13 -16 22
-3 12 1 17 10 14 7 -3 15 -13 16 -22z m152 4 c0 -11 -4 -20 -10 -20 -5 0 -10
9 -10 20 0 11 5 20 10 20 6 0 10 -9 10 -20z m118 -3 c2 -12 -3 -17 -17 -17
-15 0 -21 6 -21 21 0 25 33 22 38 -4z m566 7 c7 -18 0 -34 -15 -34 -5 0 -9 11
-9 25 0 28 15 34 24 9z m156 -10 c0 -31 -23 -28 -28 4 -2 15 2 22 12 22 11 0
16 -9 16 -26z m144 20 c9 -3 16 -15 16 -25 0 -15 -7 -19 -34 -19 -35 0 -63 21
-51 40 7 11 44 13 69 4z m532 -30 c-5 -13 -10 -14 -18 -6 -6 6 -8 18 -4 28 5
13 10 14 18 6 6 -6 8 -18 4 -28z m-416 11 c0 -8 -7 -15 -15 -15 -8 0 -15 7
-15 15 0 8 7 15 15 15 8 0 15 -7 15 -15z m551 0 c0 -5 -12 -11 -26 -13 -18 -2
-25 1 -25 13 0 12 7 15 25 13 14 -2 26 -7 26 -13z m-3847 -31 c24 -9 20 -44
-4 -44 -15 0 -20 7 -20 25 0 27 1 28 24 19z m740 -27 c3 -13 17 -29 31 -35 47
-22 22 -59 -31 -46 -21 5 -27 2 -37 -25 -14 -38 -44 -42 -53 -7 -9 36 4 65 32
72 16 4 24 13 24 28 0 41 24 49 34 13z m116 -3 c0 -20 -4 -25 -16 -20 -9 3
-18 6 -20 6 -2 0 -4 9 -4 20 0 13 7 20 20 20 15 0 20 -7 20 -26z m97 -4 c7
-13 21 -28 33 -32 13 -5 20 -15 18 -24 -2 -13 -16 -17 -53 -18 -78 -2 -113 24
-60 44 18 7 25 17 25 36 0 31 20 28 37 -6z m571 8 c2 -11 -3 -18 -12 -18 -9 0
-22 -12 -28 -27 -7 -16 -13 -29 -14 -31 -1 -2 -27 -5 -57 -7 -40 -3 -58 -1
-67 10 -19 23 -2 35 46 35 31 0 46 5 49 15 3 8 7 22 10 31 7 22 69 15 73 -8z
m156 6 c3 -9 4 -20 0 -25 -8 -14 -48 -11 -70 6 -16 13 -17 16 -4 25 23 15 67
12 74 -6z m204 -5 c2 -11 -6 -18 -24 -22 -37 -7 -54 1 -54 25 0 16 6 19 37 16
25 -2 39 -8 41 -19z m110 -3 c3 -13 -1 -17 -14 -14 -11 2 -20 11 -22 22 -3 13
1 17 14 14 11 -2 20 -11 22 -22z m158 13 c3 -6 -7 -24 -24 -39 -26 -23 -30
-34 -26 -62 5 -36 -8 -64 -25 -54 -16 10 -15 153 2 159 23 10 66 7 73 -4z m88
5 c9 -3 16 -15 16 -25 0 -10 13 -25 30 -34 42 -22 39 -45 -4 -45 -45 0 -66 22
-66 71 0 42 0 42 24 33z m112 -30 c-4 -12 -10 -14 -17 -7 -5 5 -7 17 -3 27 4
12 10 14 17 7 5 -5 7 -17 3 -27z m209 11 c0 -15 -8 -21 -29 -23 -33 -4 -51 10
-42 33 9 25 71 16 71 -10z m165 -6 c0 -20 -15 -26 -25 -9 -9 15 3 43 15 35 5
-3 10 -15 10 -26z m100 5 c0 -8 -7 -14 -15 -14 -15 0 -21 21 -9 33 10 9 24 -2
24 -19z m148 -2 c3 -21 0 -23 -29 -20 -21 2 -34 10 -40 24 -7 19 -4 21 29 20
31 -1 38 -5 40 -24z m506 18 c30 -11 34 -36 7 -45 -25 -8 -71 11 -71 29 0 8 8
17 18 19 9 3 18 5 19 6 1 0 13 -3 27 -9z m-384 -21 c0 -25 -33 -22 -38 4 -2
12 3 17 17 17 15 0 21 -6 21 -21z m153 6 c7 -16 -8 -29 -23 -20 -15 9 -12 35
4 35 8 0 16 -7 19 -15z m97 -6 c0 -24 -23 -21 -28 4 -2 10 3 17 12 17 10 0 16
-9 16 -21z m315 1 c0 -7 -6 -15 -12 -17 -8 -3 -13 4 -13 17 0 13 5 20 13 18 6
-3 12 -11 12 -18z m105 0 c0 -11 -7 -20 -15 -20 -8 0 -15 9 -15 20 0 11 7 20
15 20 8 0 15 -9 15 -20z m-3912 -52 c2 -9 -5 -19 -16 -22 -27 -9 -72 10 -72
29 0 23 84 17 88 -7z m1932 -5 c0 -22 -4 -24 -37 -21 -30 2 -39 8 -41 24 -3
18 2 21 38 21 36 0 40 -3 40 -24z m882 3 c14 -21 8 -26 -27 -26 -23 0 -38 6
-42 16 -12 32 49 41 69 10z m-1092 -31 c0 -39 -3 -45 -25 -51 -52 -13 -79 27
-30 46 15 6 25 17 25 30 0 11 7 20 15 20 11 0 15 -12 15 -45z m370 25 c0 -11
11 -27 25 -36 20 -13 23 -19 14 -30 -14 -17 -51 -18 -67 -2 -7 7 -12 29 -12
50 0 31 4 38 20 38 13 0 20 -7 20 -20z m524 -13 c17 -47 -25 -91 -43 -45 -5
13 -16 30 -25 37 -29 25 -20 43 21 39 31 -2 39 -8 47 -31z m306 18 c7 -9 10
-18 7 -21 -10 -11 -37 5 -37 21 0 19 14 19 30 0z m108 -29 c4 -44 -13 -70 -28
-46 -5 8 -10 32 -10 53 0 31 3 38 18 35 12 -2 18 -15 20 -42z m152 24 c0 -11
-7 -20 -15 -20 -8 0 -15 9 -15 20 0 11 7 20 15 20 8 0 15 -9 15 -20z m157 3
c2 -6 -5 -16 -16 -22 -25 -14 -71 2 -71 24 0 13 9 15 42 13 23 -2 43 -8 45
-15z m98 -3 c0 -7 -6 -15 -12 -17 -8 -3 -13 4 -13 17 0 13 5 20 13 18 6 -3 12
-11 12 -18z m113 -3 c2 -10 -3 -17 -11 -17 -16 0 -30 24 -19 34 10 10 27 1 30
-17z m202 3 c0 -14 -7 -20 -22 -21 -35 -2 -52 2 -60 14 -11 19 2 27 43 27 32
0 39 -3 39 -20z m110 1 c0 -11 -4 -22 -9 -25 -12 -8 -34 21 -26 34 11 17 35
11 35 -9z m128 -8 c4 -26 -1 -28 -29 -13 -27 15 -25 42 4 38 14 -2 23 -11 25
-25z m-4210 -25 c18 -18 14 -38 -7 -38 -17 0 -31 18 -31 41 0 13 24 11 38 -3z
m270 -22 c3 -13 -1 -17 -14 -14 -11 2 -20 11 -22 22 -3 13 1 17 14 14 11 -2
20 -11 22 -22z m1932 -7 c0 -10 -4 -19 -9 -19 -14 0 -33 28 -27 39 10 16 36 1
36 -20z m-160 7 c0 -8 -4 -17 -9 -21 -12 -7 -24 12 -16 25 9 15 25 12 25 -4z
m525 -5 c3 -11 17 -26 30 -35 47 -31 18 -68 -33 -43 -29 13 -37 35 -28 73 8
29 22 31 31 5z m371 -16 c6 -36 -9 -70 -27 -59 -10 6 -12 77 -2 87 14 14 22 6
29 -28z m152 18 c-4 -22 -22 -20 -26 1 -2 10 3 16 13 16 10 0 15 -7 13 -17z
m252 -3 c0 -11 -4 -20 -10 -20 -5 0 -10 9 -10 20 0 11 5 20 10 20 6 0 10 -9
10 -20z m118 3 c5 -18 -28 -29 -38 -12 -5 7 -6 17 -3 22 7 12 35 5 41 -10z
m152 -3 c0 -11 -7 -20 -15 -20 -8 0 -15 9 -15 20 0 11 7 20 15 20 8 0 15 -9
15 -20z m100 -6 c0 -8 -7 -14 -15 -14 -15 0 -21 21 -9 33 10 9 24 -2 24 -19z
m94 20 c9 -3 16 -12 16 -19 0 -7 12 -23 28 -34 l27 -20 -32 -30 c-17 -17 -33
-36 -35 -42 -2 -7 -10 -9 -16 -5 -11 7 -18 156 -8 156 2 0 11 -3 20 -6z m220
-25 c-10 -16 -24 -9 -24 12 0 18 2 19 15 9 8 -7 12 -16 9 -21z m-3959 -29 c4
-6 4 -18 1 -26 -4 -12 -10 -13 -26 -4 -11 6 -20 17 -20 25 0 17 36 20 45 5z
m1933 -84 c-2 -55 -6 -71 -18 -71 -11 0 -16 15 -18 60 -2 32 0 70 3 83 5 20 8
22 21 11 11 -9 14 -30 12 -83z m756 88 c9 -3 16 -15 16 -25 0 -15 -7 -19 -34
-19 -39 0 -53 14 -36 35 13 16 29 19 54 9z m-656 -49 c4 -46 -13 -70 -26 -36
-11 30 -3 83 12 78 6 -2 12 -21 14 -42z m152 25 c0 -13 -5 -18 -15 -14 -16 7
-19 17 -8 27 12 13 23 7 23 -13z m160 -1 c0 -24 -23 -21 -28 4 -2 10 3 17 12
17 10 0 16 -9 16 -21z m623 7 c6 -15 -1 -26 -15 -26 -4 0 -8 9 -8 20 0 23 15
27 23 6z m101 8 c21 -8 21 -67 1 -84 -9 -7 -17 -11 -19 -9 -9 9 -10 99 -2 99
2 0 11 -3 20 -6z m164 -17 c2 -10 -3 -17 -12 -17 -18 0 -29 16 -21 31 9 14 29
6 33 -14z m102 -27 c0 -37 -4 -50 -14 -50 -19 0 -29 33 -21 70 11 51 35 37 35
-20z m160 30 c0 -11 -6 -20 -14 -20 -18 0 -29 16 -21 30 11 18 35 11 35 -10z
m96 -4 c8 -32 2 -69 -12 -73 -15 -5 -26 40 -18 72 8 32 22 32 30 1z m314 -11
c5 -43 -1 -65 -15 -65 -11 0 -15 11 -15 43 0 45 8 63 21 50 4 -5 8 -17 9 -28z
m158 9 c2 -17 -2 -21 -30 -21 -37 0 -58 12 -58 34 0 10 11 13 43 11 34 -2 43
-7 45 -24z m-1928 -48 c0 -18 -16 -29 -30 -21 -13 8 -1 35 16 35 8 0 14 -6 14
-14z m108 -30 c5 -52 -4 -72 -23 -56 -9 8 -15 30 -15 57 0 37 3 44 18 41 12
-2 18 -15 20 -42z m155 30 c7 -16 -1 -26 -20 -26 -7 0 -13 9 -13 20 0 23 25
27 33 6z m215 -3 c5 -17 -26 -29 -40 -15 -6 6 -7 15 -3 22 9 14 37 9 43 -7z
m150 -7 c3 -13 -1 -17 -14 -14 -11 2 -20 11 -22 22 -3 13 1 17 14 14 11 -2 20
-11 22 -22z m160 1 c2 -12 -3 -17 -17 -17 -15 0 -21 6 -21 21 0 25 33 22 38
-4z m260 0 c2 -10 -3 -17 -12 -17 -18 0 -29 16 -21 31 9 14 29 6 33 -14z m250
0 c2 -10 -3 -17 -12 -17 -10 0 -16 9 -16 21 0 24 23 21 28 -4z m700 1 c-3 -7
-11 -13 -18 -13 -7 0 -15 6 -17 13 -3 7 4 12 17 12 13 0 20 -5 18 -12z m-2045
-52 c7 -16 -1 -26 -20 -26 -7 0 -13 9 -13 20 0 23 25 27 33 6z m257 0 c0 -16
-18 -31 -27 -22 -8 8 5 36 17 36 5 0 10 -6 10 -14z m98 -9 c2 -10 -3 -17 -12
-17 -10 0 -16 9 -16 21 0 24 23 21 28 -4z m112 3 c0 -13 -7 -20 -20 -20 -13 0
-20 7 -20 20 0 13 7 20 20 20 13 0 20 -7 20 -20z m153 -16 c-3 -8 -9 -14 -13
-14 -14 0 -21 17 -14 34 5 12 10 14 20 6 7 -7 10 -18 7 -26z m102 13 c0 -26
-20 -25 -23 2 -3 16 1 22 10 19 7 -3 13 -12 13 -21z m165 -26 c0 -33 -14 -56
-29 -47 -12 8 -15 54 -5 80 9 24 34 0 34 -33z m150 23 c0 -8 -7 -14 -15 -14
-15 0 -21 21 -9 33 10 9 24 -2 24 -19z m108 3 c2 -10 -3 -17 -12 -17 -18 0
-29 16 -21 31 9 14 29 6 33 -14z m156 -17 c-14 -14 -38 5 -30 26 6 16 8 16 23
1 11 -11 14 -20 7 -27z m416 3 c0 -24 -25 -9 -28 17 -3 21 -2 22 12 11 9 -7
16 -20 16 -28z m-260 7 c0 -22 -7 -25 -29 -11 -16 10 -6 31 15 31 8 0 14 -9
14 -20z m100 -1 c0 -24 -23 -21 -28 4 -2 10 3 17 12 17 10 0 16 -9 16 -21z
m313 6 c8 -19 -13 -31 -23 -14 -9 14 -4 29 10 29 4 0 10 -7 13 -15z m110 0 c4
-8 2 -17 -4 -20 -11 -7 -41 20 -32 29 11 11 31 6 36 -9z m-2347 -46 c8 -14
-11 -33 -25 -25 -11 7 -4 36 9 36 5 0 12 -5 16 -11z m155 -54 c6 -73 2 -97
-20 -93 -12 3 -16 15 -16 53 0 42 -3 52 -22 60 -13 5 -23 18 -23 28 0 15 7 18
38 15 l37 -3 6 -60z m102 51 c7 -16 -1 -26 -20 -26 -7 0 -13 9 -13 20 0 23 25
27 33 6z m155 -10 c3 -13 -1 -17 -14 -14 -11 2 -20 11 -22 22 -3 13 1 17 14
14 11 -2 20 -11 22 -22z m146 18 c23 -9 20 -34 -4 -34 -13 0 -20 7 -20 20 0
22 1 23 24 14z m212 -31 c-7 -17 -8 -17 -17 0 -12 21 -2 44 13 29 6 -6 8 -19
4 -29z m164 11 c0 -8 -7 -14 -15 -14 -15 0 -21 21 -9 33 10 9 24 -2 24 -19z
m210 7 c0 -11 -4 -22 -9 -25 -11 -7 -23 22 -15 35 9 16 24 10 24 -10z m414 3
c7 -17 0 -34 -14 -34 -11 0 -21 30 -14 41 8 14 21 11 28 -7z m154 -13 c3 -16
-1 -22 -10 -19 -7 3 -15 15 -16 27 -3 16 1 22 10 19 7 -3 15 -15 16 -27z m311
-8 c-15 -18 -34 -1 -25 22 5 14 9 15 21 5 12 -10 13 -16 4 -27z m107 22 c10
-26 0 -37 -20 -22 -11 8 -16 19 -12 25 10 16 26 15 32 -3z m-766 -3 c0 -15
-22 -31 -36 -25 -18 7 -5 33 17 33 10 0 19 -4 19 -8z m508 -10 c2 -7 -3 -12
-12 -12 -9 0 -16 7 -16 16 0 17 22 14 28 -4z m417 -2 c0 -22 -29 -18 -33 3 -3
14 1 18 15 15 10 -2 18 -10 18 -18z m-2705 -50 c0 -13 -7 -20 -20 -20 -13 0
-20 7 -20 20 0 13 7 20 20 20 13 0 20 -7 20 -20z m158 -2 c3 -15 -4 -18 -37
-18 -40 0 -58 11 -46 31 11 17 79 7 83 -13z m102 2 c0 -11 -7 -20 -15 -20 -8
0 -15 9 -15 20 0 11 7 20 15 20 8 0 15 -9 15 -20z m109 -6 c10 -23 10 -26 -4
-20 -9 3 -21 6 -26 6 -5 0 -9 9 -9 20 0 29 25 25 39 -6z m361 -24 c0 -36 -14
-60 -27 -46 -11 10 -12 60 -2 78 15 28 29 12 29 -32z m150 24 c0 -8 -7 -14
-15 -14 -15 0 -21 21 -9 33 10 9 24 -2 24 -19z m155 3 c0 -26 -20 -25 -23 2
-3 16 1 22 10 19 7 -3 13 -12 13 -21z m266 7 c10 -13 10 -17 -2 -24 -17 -11
-45 13 -35 29 10 15 21 14 37 -5z m103 -1 c9 -22 -10 -41 -25 -26 -13 13 -5
43 10 43 5 0 12 -8 15 -17z m100 0 c4 -9 3 -20 -1 -24 -13 -13 -34 6 -27 24 8
22 20 22 28 0z m510 11 c9 -3 16 -15 16 -26 0 -14 -5 -18 -16 -14 -9 3 -18 6
-20 6 -2 0 -4 9 -4 20 0 22 1 23 24 14z m160 0 c9 -3 16 -15 16 -26 0 -28 -34
-19 -38 10 -4 24 -2 25 22 16z m-1028 -15 c3 -6 1 -16 -4 -21 -13 -13 -45 8
-36 23 7 12 31 11 40 -2z m572 -6 c-4 -22 -22 -20 -26 1 -2 10 3 16 13 16 10
0 15 -7 13 -17z m152 -3 c0 -13 -5 -18 -15 -14 -8 4 -15 12 -15 20 0 8 7 14
15 14 8 0 15 -9 15 -20z m470 0 c0 -11 -7 -20 -15 -20 -8 0 -15 9 -15 20 0 11
7 20 15 20 8 0 15 -9 15 -20z m160 2 c0 -26 -11 -34 -27 -21 -20 17 -16 39 7
39 13 0 20 -7 20 -18z m150 -2 c0 -21 -15 -27 -25 -10 -7 12 2 30 16 30 5 0 9
-9 9 -20z m183 -17 c-4 -11 -8 -13 -11 -5 -2 7 -10 12 -18 12 -15 0 -19 12 -8
23 13 12 43 -13 37 -30z m-3103 -33 c0 -11 -7 -20 -15 -20 -15 0 -21 21 -8 33
12 13 23 7 23 -13z m160 1 c0 -23 -28 -34 -64 -25 -17 4 -26 13 -26 25 0 16 8
19 45 19 38 0 45 -3 45 -19z m153 4 c8 -18 -11 -31 -25 -17 -11 11 -3 32 12
32 4 0 10 -7 13 -15z m371 -1 c4 -9 4 -19 2 -22 -10 -9 -36 8 -36 23 0 20 26
19 34 -1z m521 -9 c0 -28 -29 -25 -33 3 -3 19 0 23 15 20 10 -2 18 -12 18 -23z
m255 0 c0 -18 -4 -23 -15 -19 -16 6 -20 26 -8 37 13 14 23 6 23 -18z m369 -12
c-15 -18 -34 -1 -25 22 5 14 9 15 21 5 12 -10 13 -16 4 -27z m209 14 c2 -10
-3 -17 -12 -17 -18 0 -29 16 -21 31 9 14 29 6 33 -14z m162 -8 c0 -20 -24 -26
-35 -9 -4 6 -4 17 -1 25 7 20 36 7 36 -16z m154 -10 c-7 -12 -31 -11 -38 0 -4
5 -3 17 0 26 6 15 8 15 25 -1 10 -9 16 -21 13 -25z m140 35 c9 -3 16 -15 16
-26 0 -28 -34 -19 -38 10 -4 24 -2 25 22 16z m171 -24 c0 -8 -8 -16 -17 -18
-13 -2 -18 3 -18 18 0 15 5 20 18 18 9 -2 17 -10 17 -18z m205 0 c0 -11 -7
-20 -15 -20 -8 0 -15 9 -15 20 0 11 7 20 15 20 8 0 15 -9 15 -20z m156 9 c10
-17 -13 -36 -27 -22 -12 12 -4 33 11 33 5 0 12 -5 16 -11z m-3179 -55 c8 -20
-13 -42 -27 -28 -12 12 -3 44 11 44 5 0 12 -7 16 -16z m213 -10 c0 -8 -9 -14
-20 -14 -13 0 -20 7 -20 19 0 14 5 18 20 14 11 -3 20 -12 20 -19z m308 -2 c2
-14 -2 -22 -11 -22 -15 0 -29 34 -19 45 11 11 27 -2 30 -23z m104 -14 c-9 -9
-15 -9 -23 -1 -7 7 -9 20 -5 29 6 16 8 16 23 1 13 -13 15 -19 5 -29z m115 26
c9 -23 -13 -40 -32 -24 -12 10 -13 16 -4 26 15 18 28 18 36 -2z m153 -4 c9
-16 8 -22 -5 -26 -21 -8 -39 10 -32 30 9 22 24 20 37 -4z m196 -16 c-5 -13
-10 -14 -18 -6 -6 6 -8 18 -4 28 5 13 10 14 18 6 6 -6 8 -18 4 -28z m156 -6
c-9 -9 -15 -9 -23 -1 -7 7 -9 20 -5 29 6 16 8 16 23 1 13 -13 15 -19 5 -29z
m162 19 c12 -19 3 -32 -19 -24 -17 7 -21 51 -3 45 6 -2 16 -12 22 -21z m106 8
c13 -16 6 -35 -15 -35 -18 0 -26 15 -19 34 8 20 18 20 34 1z m252 -37 c-15
-15 -27 14 -17 40 6 15 8 15 18 -6 7 -16 7 -26 -1 -34z m-94 18 c3 -13 -1 -17
-14 -14 -11 2 -20 11 -22 22 -3 13 1 17 14 14 11 -2 20 -11 22 -22z m210 -3
c3 -17 -1 -20 -17 -16 -26 7 -29 46 -3 41 9 -2 18 -13 20 -25z m157 7 c0 -22
-29 -18 -33 3 -3 14 1 18 15 15 10 -2 18 -10 18 -18z m203 -3 c2 -10 -3 -17
-12 -17 -10 0 -16 9 -16 21 0 24 23 21 28 -4z m212 4 c0 -11 -4 -22 -8 -25
-14 -9 -35 12 -29 28 9 23 37 20 37 -3z m256 8 c3 -6 -1 -18 -10 -27 -15 -15
-16 -14 -16 11 0 27 13 36 26 16z m212 -12 c2 -10 -3 -17 -12 -17 -18 0 -29
16 -21 31 9 14 29 6 33 -14z m330 -4 c2 -8 -5 -13 -17 -13 -12 0 -21 6 -21 16
0 18 31 15 38 -3z m-3466 -65 c-9 -9 -15 -9 -23 -1 -7 7 -9 20 -5 29 6 16 8
16 23 1 13 -13 15 -19 5 -29z m328 11 c0 -15 -30 -23 -42 -11 -6 6 -8 18 -4
27 4 13 10 14 26 5 11 -6 20 -15 20 -21z m-210 -12 c13 -29 19 -32 51 -29 44
4 47 -3 42 -108 -1 -41 -3 -182 -3 -313 l0 -238 -142 3 -143 3 -13 27 c-7 15
-21 30 -32 33 -11 4 -20 15 -20 25 0 10 -11 25 -25 34 -14 9 -25 23 -25 31 0
9 -11 20 -25 27 -13 6 -28 23 -34 38 -5 16 -19 31 -30 35 -12 4 -21 12 -20 18
3 26 -2 37 -17 37 -8 0 -19 12 -25 28 -5 15 -19 32 -31 37 -12 6 -25 21 -28
35 -5 20 -12 25 -35 25 l-30 0 -5 -215 -5 -215 -90 0 -90 0 0 310 c0 171 3
318 6 329 5 17 18 18 165 18 154 1 159 0 170 -21 6 -12 21 -29 33 -37 11 -8
21 -20 21 -27 0 -11 9 -21 71 -85 14 -15 29 -37 33 -48 3 -12 18 -26 31 -32
14 -6 25 -18 25 -26 0 -8 8 -21 18 -28 9 -7 23 -25 31 -40 15 -30 31 -34 62
-17 19 10 20 20 18 181 -1 160 0 172 18 187 11 9 23 24 26 34 10 27 30 20 47
-16z m412 6 c18 -37 60 -39 68 -3 3 14 11 25 18 25 7 0 18 -11 25 -25 l13 -25
222 -3 c221 -2 223 -3 231 -25 5 -13 16 -29 25 -36 14 -12 16 -47 16 -271 l0
-257 -24 -11 c-14 -6 -26 -21 -28 -34 l-3 -23 -355 0 -355 0 -3 23 c-2 12 -12
27 -23 32 -18 10 -19 24 -19 270 0 251 1 260 20 270 12 6 25 22 30 36 8 20 16
24 54 24 41 0 45 2 51 30 8 37 20 38 37 3z m678 7 c0 -23 -25 -27 -33 -6 -7
16 1 26 20 26 7 0 13 -9 13 -20z m310 0 c0 -11 -7 -20 -15 -20 -8 0 -15 9 -15
20 0 11 7 20 15 20 8 0 15 -9 15 -20z m630 -5 c12 -31 28 -38 94 -39 l51 -1 0
-325 0 -325 -90 0 -90 0 -1 330 c0 182 1 342 3 358 6 34 20 35 33 2z m360 4
c0 -10 -7 -19 -15 -19 -8 0 -15 2 -15 4 0 2 -2 11 -5 18 -4 9 2 14 15 15 14 1
20 -4 20 -18z m324 -21 c8 -16 21 -23 41 -23 21 0 41 -12 68 -39 31 -32 37
-45 37 -82 0 -36 5 -47 25 -60 22 -14 25 -23 23 -62 -1 -29 3 -47 10 -50 28
-9 42 -35 42 -77 0 -38 4 -46 28 -57 24 -12 27 -20 30 -66 3 -46 6 -54 28 -62
21 -8 24 -16 24 -55 l0 -46 -97 3 -98 3 0 52 c0 28 -3 55 -7 58 -10 10 -408 9
-418 -1 -5 -5 -11 -32 -12 -59 l-3 -50 -90 0 c-87 0 -90 1 -93 24 -6 39 7 71
34 81 22 9 25 15 23 56 -2 39 1 48 26 68 24 20 27 27 22 59 -5 33 -3 38 24 54
24 14 29 24 29 54 0 51 8 69 38 80 21 8 24 14 18 40 -8 44 2 79 24 79 12 0 20
9 22 23 3 20 10 22 63 25 64 3 82 13 96 51 11 27 22 21 43 -21z m196 27 c10
-12 9 -16 -5 -21 -19 -8 -40 9 -31 25 10 15 21 14 36 -4z m158 2 c7 -8 7 -18
2 -27 -8 -13 -11 -13 -26 2 -9 9 -13 21 -10 27 9 15 21 14 34 -2z m102 -17 c0
-11 -4 -20 -10 -20 -5 0 -10 2 -10 4 0 2 -3 11 -6 20 -4 11 -1 16 10 16 9 0
16 -8 16 -20z m-4072 -48 c2 -14 -2 -22 -12 -22 -19 0 -29 17 -22 36 8 22 30
12 34 -14z m572 -3 c0 -20 -15 -26 -25 -9 -9 15 3 43 15 35 5 -3 10 -15 10
-26z m110 1 c0 -11 -6 -20 -13 -20 -19 0 -27 10 -20 26 8 21 33 17 33 -6z
m1562 3 c2 -10 3 -75 2 -145 -3 -117 -1 -129 16 -138 33 -17 50 -12 56 19 4
17 14 31 25 34 10 3 23 17 29 31 5 14 16 26 24 26 9 0 23 14 31 31 9 16 25 39
36 50 11 11 17 24 13 30 -3 6 4 13 15 16 12 3 28 18 37 34 l14 29 110 -1 c64
0 112 -5 116 -11 3 -5 -8 -23 -25 -38 -17 -16 -31 -33 -31 -38 0 -5 -9 -12
-20 -15 -12 -3 -20 -14 -20 -26 0 -13 -11 -26 -29 -36 -17 -8 -31 -25 -33 -37
-2 -15 -11 -24 -25 -26 -16 -2 -23 -10 -23 -26 0 -17 -9 -27 -30 -36 -16 -7
-30 -19 -30 -27 0 -9 14 -31 30 -50 17 -18 30 -38 30 -43 0 -6 7 -10 15 -10 9
0 21 -12 28 -27 6 -16 33 -50 59 -78 65 -68 74 -78 93 -93 35 -29 11 -37 -111
-37 l-119 0 -3 27 c-2 19 -10 28 -25 30 -13 2 -23 12 -27 28 -3 14 -16 29 -28
35 -13 6 -22 19 -22 31 0 15 -8 24 -24 28 -16 4 -25 15 -29 35 -4 21 -13 30
-29 33 -14 2 -24 12 -28 28 -5 20 -12 25 -35 25 l-30 0 -5 -150 -5 -150 -87
-3 -88 -3 0 324 c0 178 3 327 7 330 3 4 43 7 89 7 69 0 82 -3 86 -17z m163 -3
c0 -8 -8 -16 -17 -18 -13 -2 -18 3 -18 18 0 15 5 20 18 18 9 -2 17 -10 17 -18z
m943 -10 c3 -18 0 -21 -13 -16 -9 3 -19 6 -21 6 -2 0 -4 9 -4 19 0 28 34 20
38 -9z m782 5 c0 -19 -13 -25 -29 -15 -19 11 -6 41 14 34 8 -3 15 -12 15 -19z
m-1782 -47 c18 -18 15 -28 -8 -28 -13 0 -20 7 -20 20 0 23 10 26 28 8z m890
-11 c2 -10 -3 -17 -12 -17 -18 0 -29 16 -21 31 9 14 29 6 33 -14z m620 -4 c-4
-22 -22 -20 -26 1 -2 10 3 16 13 16 10 0 15 -7 13 -17z m162 4 c0 -8 -3 -17
-7 -20 -9 -9 -34 13 -27 24 8 14 34 11 34 -4z m-3965 -61 c0 -22 -14 -29 -34
-17 -19 12 -6 43 16 39 10 -2 18 -12 18 -22z m4121 3 c8 -14 -11 -33 -25 -25
-11 7 -4 36 9 36 5 0 12 -5 16 -11z m-3448 -62 c2 -12 -3 -17 -17 -17 -12 0
-21 6 -21 13 0 31 32 34 38 4z m2038 -13 c-5 -13 -10 -14 -18 -6 -6 6 -8 18
-4 28 5 13 10 14 18 6 6 -6 8 -18 4 -28z m470 15 c10 -17 -13 -36 -27 -22 -12
12 -4 33 11 33 5 0 12 -5 16 -11z m682 -12 c2 -10 -3 -17 -12 -17 -18 0 -29
16 -21 31 9 14 29 6 33 -14z m152 3 c0 -11 -7 -20 -15 -20 -15 0 -21 21 -8 33
12 13 23 7 23 -13z m-4240 -55 c0 -8 -4 -15 -10 -15 -5 0 -10 7 -10 15 0 8 5
15 10 15 6 0 10 -7 10 -15z m40 -47 c37 -5 32 -32 -7 -36 -24 -2 -33 1 -33 12
0 8 -3 23 -7 33 -5 15 -4 16 8 6 8 -6 25 -13 39 -15z m2898 -81 c2 -10 -3 -17
-12 -17 -10 0 -16 9 -16 21 0 24 23 21 28 -4z m1360 -4 c2 -8 -5 -13 -17 -13
-12 0 -21 6 -21 16 0 18 31 15 38 -3z m-4078 -51 c0 -24 -8 -32 -26 -25 -22 8
-17 43 6 43 13 0 20 -7 20 -18z m4060 -492 c29 -45 -43 -144 -114 -156 -23 -3
-48 -10 -56 -14 -16 -8 -349 -24 -530 -25 -58 0 -111 -5 -119 -10 -10 -5 -16
-4 -19 3 -4 14 -62 16 -62 2 0 -14 -66 -12 -90 2 -15 10 -22 10 -32 0 -16 -16
-50 -15 -67 1 -11 10 -14 10 -18 0 -6 -15 -69 -17 -78 -3 -4 6 -13 7 -23 1
-14 -7 -533 -13 -802 -9 -271 4 -464 0 -468 -10 -2 -7 -11 -4 -24 8 -15 14
-26 16 -44 10 -13 -5 -51 -9 -86 -9 -35 0 -72 0 -83 -1 -54 -3 -189 1 -198 7
-5 3 -48 7 -96 9 -47 1 -97 5 -109 8 -64 14 -142 18 -142 7 0 -7 -20 -10 -60
-9 -38 2 -59 7 -56 14 2 6 -1 11 -7 12 -32 4 -193 11 -282 13 -69 2 -107 7
-123 17 -27 17 -91 22 -110 8 -8 -6 -21 -5 -35 2 -12 6 -47 13 -77 16 -76 6
-93 11 -98 24 -2 7 -10 12 -17 12 -7 0 -16 7 -19 16 -3 9 -11 12 -18 8 -7 -4
-10 -4 -6 1 4 4 3 14 -4 22 -16 19 -4 27 55 33 29 3 965 6 2080 5 1782 0 2029
-2 2037 -15z m-1512 -895 c181 -14 313 -32 447 -59 39 -8 88 -18 110 -21 40
-6 123 -48 137 -69 24 -35 -8 -82 -117 -176 -67 -58 -243 -167 -337 -209 -80
-36 -312 -86 -490 -106 -384 -42 -920 8 -1122 107 -32 15 -62 28 -67 28 -4 0
-28 14 -52 30 -25 17 -49 30 -53 30 -14 1 -149 102 -196 147 -61 58 -75 77
-82 110 -14 62 40 92 224 123 36 6 115 19 175 30 92 16 344 38 600 54 124 8
647 -4 823 -19z"/>
<path d="M7650 12621 c-18 -12 -19 -126 -1 -144 14 -14 191 -11 206 4 11 11 8
120 -4 132 -13 13 -183 19 -201 8z"/>
<path d="M8695 12560 c-22 -48 -13 -63 36 -58 41 4 50 34 22 72 -25 35 -37 32
-58 -14z"/>
<path d="M5826 11114 c-33 -32 -10 -79 36 -72 17 2 24 11 26 31 6 49 -30 73
-62 41z"/>
<path d="M6147 11106 c-14 -21 -14 -26 -1 -45 34 -47 91 -4 59 45 -20 30 -38
31 -58 0z"/>
<path d="M6310 11115 c-6 -7 -10 -26 -8 -42 2 -22 9 -29 30 -31 33 -4 57 30
37 54 -22 27 -46 35 -59 19z"/>
<path d="M5980 11100 c-24 -45 41 -83 68 -40 10 16 10 24 0 40 -16 26 -54 26
-68 0z"/>
<path d="M8396 11104 c-32 -32 -6 -81 37 -70 22 5 27 12 27 36 0 19 -7 33 -19
40 -25 13 -27 13 -45 -6z"/>
<path d="M8555 11106 c-26 -19 -12 -76 20 -76 28 0 48 22 43 51 -4 28 -40 42
-63 25z"/>
<path d="M8704 11096 c-12 -32 0 -61 28 -64 35 -4 60 37 38 63 -16 19 -59 20
-66 1z"/>
<path d="M8867 11104 c-4 -4 -7 -23 -7 -41 0 -33 2 -34 33 -31 29 3 32 6 32
38 0 30 -4 35 -25 38 -14 2 -29 0 -33 -4z"/>
<path d="M5937 10993 c-13 -12 -7 -61 9 -74 20 -17 48 -1 52 31 5 33 -40 64
-61 43z"/>
<path d="M6097 10994 c-20 -20 -3 -84 23 -84 25 0 42 24 38 57 -2 21 -9 29
-28 31 -14 2 -29 0 -33 -4z"/>
<path d="M6247 10979 c-9 -32 9 -69 33 -69 28 0 46 40 31 69 -15 28 -57 28
-64 0z"/>
<path d="M6407 10993 c-11 -11 -8 -58 5 -71 34 -34 76 9 55 56 -10 21 -45 30
-60 15z"/>
<path d="M8142 10984 c-29 -20 -29 -62 1 -73 48 -19 78 36 39 72 -16 15 -20
15 -40 1z"/>
<path d="M8452 10984 c-27 -19 -28 -38 -2 -64 16 -16 25 -18 40 -10 24 13 26
52 4 74 -19 19 -15 19 -42 0z"/>
<path d="M8759 10981 c-22 -17 -22 -21 -9 -45 10 -20 20 -26 39 -24 21 2 27 9
29 35 4 44 -26 61 -59 34z"/>
<path d="M8278 10965 c-14 -31 3 -55 39 -55 27 0 38 19 29 55 -9 35 -52 35
-68 0z"/>
<path d="M8590 10975 c-22 -26 2 -65 40 -65 30 0 31 2 28 38 -3 31 -7 37 -29
40 -14 2 -31 -4 -39 -13z"/>
<path d="M5822 10868 c-17 -17 -15 -44 4 -62 23 -24 53 -20 60 8 12 48 -32 86
-64 54z"/>
<path d="M6043 10873 c-18 -7 -16 -49 3 -68 24 -23 48 -15 52 18 5 43 -19 65
-55 50z"/>
<path d="M6152 10868 c-19 -19 -14 -62 9 -76 42 -26 69 37 31 71 -22 20 -25
20 -40 5z"/>
<path d="M5934 10855 c-9 -24 13 -67 33 -63 25 5 40 35 27 56 -15 23 -52 28
-60 7z"/>
<path d="M6257 10863 c-12 -12 -7 -60 7 -72 7 -6 20 -9 29 -5 20 7 31 52 16
70 -12 15 -41 19 -52 7z"/>
<path d="M8298 10859 c-40 -23 -6 -89 36 -73 19 7 21 55 4 72 -14 14 -18 14
-40 1z"/>
<path d="M8395 10854 c-10 -10 -13 -24 -9 -38 10 -32 20 -39 49 -32 22 6 26
11 23 38 -4 38 -39 56 -63 32z"/>
<path d="M8174 10845 c-4 -9 -2 -27 4 -41 21 -44 77 -22 70 28 -2 18 -10 24
-36 26 -22 2 -34 -2 -38 -13z"/>
<path d="M5877 10744 c-4 -4 -7 -20 -7 -36 0 -21 6 -31 23 -37 30 -12 49 5 45
43 -2 25 -8 32 -28 34 -14 2 -29 0 -33 -4z"/>
<path d="M5978 10725 c-10 -22 -9 -29 8 -45 24 -24 64 -17 64 12 0 56 -51 79
-72 33z"/>
<path d="M6094 10736 c-3 -8 -4 -25 -2 -38 2 -18 9 -23 33 -23 24 0 31 5 33
23 2 13 -2 30 -8 38 -16 18 -49 18 -56 0z"/>
<path d="M8278 10743 c-48 -5 -65 -25 -50 -58 10 -22 18 -25 62 -25 57 0 70
14 54 58 -10 28 -14 30 -66 25z"/>
<path d="M5827 10612 c-22 -24 -21 -35 1 -55 25 -23 39 -21 53 4 8 16 8 28 0
45 -13 29 -32 31 -54 6z"/>
<path d="M5937 10614 c-12 -13 -7 -51 9 -64 13 -11 19 -10 37 8 17 18 19 26
11 40 -12 18 -45 28 -57 16z"/>
<path d="M5817 10479 c-8 -28 1 -47 25 -55 29 -9 52 18 44 50 -8 34 -61 38
-69 5z"/>
<path d="M6244 10424 c-4 -14 -1 -37 5 -50 9 -20 16 -24 34 -18 42 13 50 54
15 78 -32 23 -47 20 -54 -10z"/>
<path d="M6142 10308 c-16 -16 -15 -38 4 -59 32 -35 78 7 54 51 -12 22 -40 26
-58 8z"/>
<path d="M7538 10252 c-70 -6 -60 -82 12 -82 55 0 70 8 70 39 0 33 -28 48 -82
43z"/>
<path d="M10062 10731 c-8 -4 -12 -21 -10 -37 3 -25 7 -29 33 -29 28 0 30 3
30 35 0 27 -4 36 -20 38 -11 1 -26 -2 -33 -7z"/>
<path d="M10054 10600 c-6 -6 -9 -22 -6 -36 5 -28 30 -37 88 -32 37 3 39 5 39
38 l0 35 -55 3 c-31 2 -60 -2 -66 -8z"/>
<path d="M7285 9321 c-3 -5 -7 -71 -10 -148 -4 -106 -2 -144 8 -157 12 -16 32
-18 214 -18 110 0 206 3 212 6 7 5 11 58 11 156 0 138 -1 150 -20 160 -23 12
-407 13 -415 1z m362 -147 c8 -21 -13 -42 -28 -27 -13 13 -5 43 11 43 6 0 13
-7 17 -16z m-157 -75 c0 -12 -7 -19 -20 -19 -22 0 -29 35 -7 43 18 6 27 -2 27
-24z"/>
<path d="M9493 9319 c-23 -9 -26 -19 -23 -76 1 -27 -3 -35 -25 -43 -22 -8 -26
-15 -23 -42 3 -30 6 -33 43 -38 75 -9 173 0 179 17 10 25 -4 53 -30 63 -21 8
-24 16 -24 60 0 32 -5 52 -12 54 -37 12 -65 13 -85 5z"/>
<path d="M8491 7411 c-7 -5 -21 -6 -31 -4 -10 3 -28 -1 -41 -7 -13 -8 -74 -14
-142 -16 -66 -2 -136 -8 -157 -14 -41 -11 -289 -10 -305 1 -9 6 -172 14 -217
10 -9 0 -15 -8 -13 -18 2 -13 10 -17 29 -15 18 2 26 -2 26 -13 0 -10 11 -15
33 -16 53 -3 101 2 113 12 7 6 16 4 23 -4 13 -16 142 -21 448 -18 62 1 124 6
138 11 13 5 50 12 82 16 71 7 83 16 74 52 -8 28 -35 39 -60 23z m-734 -67 c-3
-3 -12 -4 -19 -1 -8 3 -5 6 6 6 11 1 17 -2 13 -5z"/>
<path d="M7473 7399 c-13 -13 -5 -48 11 -50 62 -8 74 -6 79 12 9 35 -63 65
-90 38z"/>
<path d="M5387 15322 c-40 -41 -33 -56 8 -18 19 19 35 36 35 40 0 13 -18 5
-43 -22z"/>
<path d="M5947 15124 c-8 -8 1 -24 13 -24 4 0 10 7 14 15 5 15 -14 21 -27 9z"/>
<path d="M5890 15035 c0 -8 5 -15 10 -15 6 0 10 7 10 15 0 8 -4 15 -10 15 -5
0 -10 -7 -10 -15z"/>
<path d="M5700 14500 c0 -16 5 -30 10 -30 6 0 10 14 10 30 0 17 -4 30 -10 30
-5 0 -10 -13 -10 -30z"/>
<path d="M4910 12300 c0 -11 5 -20 10 -20 6 0 10 9 10 20 0 11 -4 20 -10 20
-5 0 -10 -9 -10 -20z"/>
<path d="M4897 12114 c-6 -10 9 -42 16 -34 3 3 1 14 -3 24 -3 11 -9 15 -13 10z"/>
<path d="M4880 11808 c0 -19 2 -20 10 -8 13 19 13 30 0 30 -5 0 -10 -10 -10
-22z"/>
<path d="M4857 11334 c-10 -10 -9 -62 2 -68 4 -3 13 6 20 21 10 21 9 29 -2 40
-7 7 -16 10 -20 7z"/>
<path d="M4850 11183 c-2 -153 -6 -223 -14 -223 -6 0 -5 -5 2 -12 6 -6 15 -9
18 -5 11 11 15 275 4 282 -6 4 -10 -13 -10 -42z"/>
<path d="M5282 2760 c0 -14 2 -19 5 -12 2 6 2 18 0 25 -3 6 -5 1 -5 -13z"/>
<path d="M5270 2536 c0 -14 5 -28 10 -31 6 -4 10 7 10 24 0 17 -4 31 -10 31
-5 0 -10 -11 -10 -24z"/>
</g>
</svg>
