<svg width="64" height="64" viewBox="0 0 64 64" fill="none" xmlns="http://www.w3.org/2000/svg">
<g clip-path="url(#clip0_119_2)">
<path d="M50 11H10C8.34315 11 7 12.3431 7 14V54C7 55.6569 8.34315 57 10 57H50C51.6569 57 53 55.6569 53 54V14C53 12.3431 51.6569 11 50 11Z" fill="url(#paint0_linear_119_2)"/>
<path d="M52.51 10.07C52.3437 10.0248 52.1723 10.0013 52 10H9C8.20435 10 7.44129 10.3161 6.87868 10.8787C6.31607 11.4413 6 12.2044 6 13V55C6 55.7956 6.31607 56.5587 6.87868 57.1213C7.44129 57.6839 8.20435 58 9 58H51C51.7956 58 52.5587 57.6839 53.1213 57.1213C53.6839 56.5587 54 55.7956 54 55V12C53.9987 11.8277 53.9752 11.6563 53.93 11.49L52.51 10.07ZM52 55C52 55.2652 51.8946 55.5196 51.7071 55.7071C51.5196 55.8946 51.2652 56 51 56H9C8.73478 56 8.48043 55.8946 8.29289 55.7071C8.10536 55.5196 8 55.2652 8 55V13C8 12.7348 8.10536 12.4804 8.29289 12.2929C8.48043 12.1054 8.73478 12 9 12H50.59L52 13.41V55Z" fill="#8D6C9F"/>
<path d="M28.7402 31.0204L53.2402 6.51035H47.5902V0.860352H63.1402V16.4104H57.4802V10.7604L32.9802 35.2603L28.7402 31.0204Z" fill="#24EBA4"/>
<path d="M63.1398 -0.139648H47.5898C47.3246 -0.139648 47.0702 -0.0342916 46.8827 0.153245C46.6951 0.340781 46.5898 0.595135 46.5898 0.860352V6.51035C46.5898 6.77557 46.6951 7.02992 46.8827 7.21746C47.0702 7.40499 47.3246 7.51035 47.5898 7.51035H50.8298L27.9998 30.3104C27.8135 30.4977 27.709 30.7512 27.709 31.0154C27.709 31.2795 27.8135 31.533 27.9998 31.7204L32.2698 36.0004C32.4571 36.1866 32.7106 36.2911 32.9748 36.2911C33.239 36.2911 33.4924 36.1866 33.6798 36.0004L56.4798 13.2004V16.4404C56.4798 16.7056 56.5851 16.9599 56.7727 17.1475C56.9602 17.335 57.2146 17.4404 57.4798 17.4404H63.1398C63.405 17.4404 63.6593 17.335 63.8469 17.1475C64.0344 16.9599 64.1398 16.7056 64.1398 16.4404V0.860352C64.1398 0.595135 64.0344 0.340781 63.8469 0.153245C63.6593 -0.0342916 63.405 -0.139648 63.1398 -0.139648ZM62.1398 15.4204H58.4898V10.7604C58.4909 10.5617 58.4329 10.3673 58.3231 10.2017C58.2133 10.0362 58.0567 9.90715 57.8733 9.83098C57.6898 9.75481 57.4878 9.735 57.2931 9.77407C57.0983 9.81314 56.9196 9.90932 56.7798 10.0504L32.9998 33.8503L30.1498 31.0004L53.9498 7.20035C54.0908 7.06048 54.187 6.88178 54.2261 6.68703C54.2651 6.49228 54.2453 6.29031 54.1691 6.10687C54.093 5.92343 53.9639 5.76682 53.7984 5.65702C53.6329 5.54722 53.4384 5.4892 53.2398 5.49035H48.5898V1.86035H62.1398V15.4204Z" fill="#8D6C9F"/>
</g>
<defs>
<linearGradient id="paint0_linear_119_2" x1="7" y1="33.9757" x2="53.0735" y2="33.9757" gradientUnits="userSpaceOnUse">
<stop stop-color="#805BEF"/>
<stop offset="1" stop-color="#19FB9B"/>
</linearGradient>
<clipPath id="clip0_119_2">
<rect width="64" height="64" fill="white"/>
</clipPath>
</defs>
</svg>
